<svg width="100%" height="100%" viewBox="0 0 50 50" fill="none" xmlns="http://www.w3.org/2000/svg">
<path d="M24.9821 14.6702C25.3735 14.6702 25.7488 14.8257 26.0256 15.1024C26.3023 15.3792 26.4578 15.7545 26.4578 16.1459V23.5244H33.8363C34.2276 23.5244 34.603 23.6798 34.8797 23.9566C35.1565 24.2333 35.312 24.6087 35.312 25C35.312 25.3914 35.1565 25.7668 34.8797 26.0435C34.603 26.3203 34.2276 26.4757 33.8363 26.4757H26.4578V33.8542C26.4578 34.2456 26.3023 34.6209 26.0256 34.8977C25.7488 35.1744 25.3735 35.3299 24.9821 35.3299C24.5907 35.3299 24.2154 35.1744 23.9386 34.8977C23.6619 34.6209 23.5064 34.2456 23.5064 33.8542V26.4757H16.1279C15.7366 26.4757 15.3612 26.3203 15.0845 26.0435C14.8077 25.7668 14.6522 25.3914 14.6522 25C14.6522 24.6087 14.8077 24.2333 15.0845 23.9566C15.3612 23.6798 15.7366 23.5244 16.1279 23.5244H23.5064V16.1459C23.5064 15.7545 23.6619 15.3792 23.9386 15.1024C24.2154 14.8257 24.5907 14.6702 24.9821 14.6702Z" fill="currentColor"/>
<path fill-rule="evenodd" clip-rule="evenodd" d="M2.84668 21.7535C2.84668 15.1424 2.84668 11.8369 4.13349 9.29866C5.27079 7.0779 7.07766 5.27103 9.29842 4.13373C11.8248 2.84692 15.1422 2.84692 21.7533 2.84692H28.2463C34.8574 2.84692 38.163 2.84692 40.7012 4.13373C42.9236 5.26411 44.7151 7.07036 45.8661 9.29866C47.1529 11.825 47.1529 15.1424 47.1529 21.7535V28.2466C47.1529 34.8577 47.1529 38.1632 45.8661 40.7014C44.7288 42.9222 42.9219 44.7291 40.7012 45.8664C38.1748 47.1532 34.8574 47.1532 28.2463 47.1532H21.7533C15.1422 47.1532 11.8366 47.1532 9.29842 45.8664C7.07766 44.7291 5.27079 42.9222 4.13349 40.7014C2.84668 38.175 2.84668 34.8577 2.84668 28.2466V21.7535ZM21.7356 5.81602H28.2286C31.5932 5.81602 33.9248 5.81602 35.7547 5.96654C37.5403 6.11411 38.5673 6.38564 39.3554 6.78113C41.0174 7.63301 42.3698 8.98544 43.2217 10.6474C43.6172 11.4237 43.8887 12.4507 44.0363 14.2481C44.1838 16.0691 44.1868 18.4096 44.1868 21.7742V28.2672C44.1868 31.6318 44.1868 33.9634 44.0363 35.7933C43.8887 37.5789 43.6172 38.6059 43.2217 39.394C42.3731 41.0584 41.0198 42.4117 39.3554 43.2603C38.5791 43.6558 37.5521 43.9273 35.7547 44.0749C33.9337 44.2224 31.5932 44.2254 28.2286 44.2254H21.7356C18.371 44.2254 16.0394 44.2254 14.2095 44.0778C12.4239 43.9303 11.3969 43.6558 10.6088 43.2603C8.94443 42.4117 7.59111 41.0584 6.74251 39.394C6.34703 38.6178 6.0755 37.5936 5.92793 35.7933C5.78036 33.9723 5.77741 31.6318 5.77741 28.2672V21.7742C5.77741 18.4096 5.77741 16.078 5.92793 14.2481C6.0755 12.4626 6.34703 11.4355 6.74251 10.6474C7.5944 8.98544 8.94683 7.63301 10.6088 6.78113C11.385 6.38564 12.4121 6.11411 14.2095 5.96654C16.0305 5.81897 18.371 5.81602 21.7356 5.81602Z" fill="currentColor"/>
</svg>
