<svg width="100%" height="100%" viewBox="0 0 50 50" fill="none" xmlns="http://www.w3.org/2000/svg">
<path d="M24.9984 5.20752C25.8272 5.20752 26.622 5.53676 27.2081 6.12281C27.7941 6.70886 28.1234 7.50372 28.1234 8.33252C28.1234 9.16132 27.7941 9.95618 27.2081 10.5422C26.622 11.1283 25.8272 11.4575 24.9984 11.4575H14.5817C14.3054 11.4575 14.0405 11.5673 13.8451 11.7626C13.6498 11.958 13.54 12.2229 13.54 12.4992V37.4992C13.54 37.7755 13.6498 38.0404 13.8451 38.2358C14.0405 38.4311 14.3054 38.5409 14.5817 38.5409H23.9567C24.7855 38.5409 25.5804 38.8701 26.1664 39.4561C26.7525 40.0422 27.0817 40.8371 27.0817 41.6659C27.0817 42.4947 26.7525 43.2895 26.1664 43.8756C25.5804 44.4616 24.7855 44.7909 23.9567 44.7909H14.5817C12.6478 44.7909 10.7932 44.0226 9.42572 42.6552C8.05827 41.2877 7.29004 39.4331 7.29004 37.4992V12.4992C7.29004 10.5653 8.05827 8.71065 9.42572 7.3432C10.7932 5.97575 12.6478 5.20752 14.5817 5.20752H24.9984ZM37.6234 16.895L43.5171 22.7909C44.1023 23.3768 44.431 24.1711 44.431 24.9992C44.431 25.8273 44.1023 26.6216 43.5171 27.2075L37.6255 33.1034C37.0392 33.6896 36.2441 34.0189 35.415 34.0189C34.586 34.0189 33.7909 33.6896 33.2046 33.1034C32.6184 32.5171 32.289 31.722 32.289 30.8929C32.289 30.0639 32.6184 29.2688 33.2046 28.6825L33.763 28.1242H24.9984C24.1696 28.1242 23.3747 27.7949 22.7887 27.2089C22.2026 26.6228 21.8734 25.828 21.8734 24.9992C21.8734 24.1704 22.2026 23.3755 22.7887 22.7895C23.3747 22.2034 24.1696 21.8742 24.9984 21.8742H33.763L33.2046 21.3159C32.9145 21.0256 32.6844 20.681 32.5274 20.3018C32.3704 19.9226 32.2897 19.5162 32.2898 19.1057C32.2899 18.6953 32.3708 18.2889 32.528 17.9098C32.6851 17.5307 32.9154 17.1862 33.2057 16.8961C33.4959 16.6059 33.8405 16.3758 34.2197 16.2188C34.5989 16.0619 35.0054 15.9811 35.4158 15.9812C35.8262 15.9813 36.2326 16.0622 36.6117 16.2194C36.9908 16.3765 37.3353 16.6068 37.6255 16.8971L37.6234 16.895Z" fill="currentColor"/>
</svg>
