<svg width="100%" height="100%" viewBox="0 0 50 50" fill="none" xmlns="http://www.w3.org/2000/svg">
<path d="M49.9996 25.5673C49.9996 23.7946 49.8374 22.0901 49.5358 20.4536H25.5098V30.124H39.2389C38.6476 33.249 36.8504 35.8967 34.1486 37.6694V43.9421H42.393C47.2167 39.5899 49.9996 33.1807 49.9996 25.5673Z" fill="#4285F4"/>
<path d="M25.5099 49.9998C32.3977 49.9998 38.1722 47.7611 42.3928 43.9431L34.1484 37.6704C31.8642 39.1704 28.942 40.0567 25.5099 40.0567C18.8655 40.0567 13.2417 35.6589 11.2356 29.75H2.71289V36.2272C6.9106 44.3976 15.5377 49.9998 25.5099 49.9998Z" fill="#34A853"/>
<path d="M11.236 29.7496C10.7258 28.2496 10.436 26.6473 10.436 24.9996C10.436 23.3519 10.7258 21.7496 11.236 20.2496V13.7725H2.71327C0.985715 17.1474 0 20.9656 0 24.9996C0 29.0336 0.985715 32.8518 2.71327 36.2267L11.236 29.7496Z" fill="#FBBC04"/>
<path d="M25.5099 9.9434C29.255 9.9434 32.6178 11.2046 35.2617 13.6819L42.5785 6.51143C38.1607 2.47747 32.3859 0.000244141 25.5099 0.000244141C15.5377 0.000244141 6.9106 5.60244 2.71289 13.7729L11.2356 20.2501C13.2417 14.3411 18.8655 9.9434 25.5099 9.9434Z" fill="#E94235"/>
</svg>
