<svg width="100%" height="100%" viewBox="0 0 50 50" fill="none" xmlns="http://www.w3.org/2000/svg">
<path d="M25.0003 45.8332C13.4941 45.8332 4.16699 36.5061 4.16699 24.9998C4.16699 13.4936 13.4941 4.1665 25.0003 4.1665C36.5066 4.1665 45.8337 13.4936 45.8337 24.9998C45.8337 36.5061 36.5066 45.8332 25.0003 45.8332ZM25.0003 41.6665C29.4206 41.6665 33.6598 39.9106 36.7854 36.7849C39.911 33.6593 41.667 29.4201 41.667 24.9998C41.667 20.5796 39.911 16.3403 36.7854 13.2147C33.6598 10.0891 29.4206 8.33317 25.0003 8.33317C20.58 8.33317 16.3408 10.0891 13.2152 13.2147C10.0896 16.3403 8.33366 20.5796 8.33366 24.9998C8.33366 29.4201 10.0896 33.6593 13.2152 36.7849C16.3408 39.9106 20.58 41.6665 25.0003 41.6665ZM22.917 31.2498H27.0837V35.4165H22.917V31.2498ZM27.0837 27.8228V29.1665H22.917V26.0415C22.917 25.489 23.1365 24.9591 23.5272 24.5684C23.9179 24.1777 24.4478 23.9582 25.0003 23.9582C25.5922 23.9581 26.1718 23.79 26.6718 23.4734C27.1719 23.1568 27.5717 22.7048 27.8248 22.1698C28.078 21.6348 28.174 21.039 28.1017 20.4516C28.0295 19.8642 27.7919 19.3094 27.4166 18.8517C27.0414 18.3941 26.5439 18.0524 25.982 17.8664C25.4202 17.6805 24.8171 17.6579 24.2429 17.8013C23.6687 17.9447 23.147 18.2482 22.7386 18.6765C22.3302 19.1048 22.0517 19.6403 21.9357 20.2207L17.8482 19.4019C18.1016 18.1354 18.6868 16.9589 19.5439 15.9927C20.401 15.0265 21.4993 14.3052 22.7266 13.9026C23.9538 13.5 25.2659 13.4304 26.5288 13.7011C27.7917 13.9718 28.9601 14.573 29.9145 15.4432C30.8689 16.3135 31.5752 17.4215 31.961 18.6541C32.3468 19.8868 32.3984 21.1997 32.1105 22.4588C31.8225 23.7179 31.2054 24.878 30.3222 25.8204C29.439 26.7628 28.3214 27.4538 27.0837 27.8228Z" fill="currentColor"/>
</svg>
