<svg width="100%" height="100%" viewBox="0 0 407 111" fill="none" xmlns="http://www.w3.org/2000/svg">
<path d="M2.34146 76.1951V78.5366H0V76.1951H2.34146ZM2.34146 73.8537V76.1951H0V73.8537H2.34146ZM2.34146 71.5122V73.8537H0V71.5122H2.34146ZM2.34146 69.1707V71.5122H0V69.1707H2.34146ZM2.34146 66.8293V69.1707H0V66.8293H2.34146ZM2.34146 64.4878V66.8293H0V64.4878H2.34146ZM2.34146 62.1463V64.4878H0V62.1463H2.34146ZM2.34146 59.8049V62.1463H0V59.8049H2.34146ZM2.34146 57.4634V59.8049H0V57.4634H2.34146ZM2.34146 55.122V57.4634H0V55.122H2.34146ZM2.34146 52.7805V55.122H0V52.7805H2.34146ZM2.34146 50.439V52.7805H0V50.439H2.34146ZM2.34146 48.0976V50.439H0V48.0976H2.34146ZM2.34146 45.7561V48.0976H0V45.7561H2.34146ZM2.34146 43.4146V45.7561H0V43.4146H2.34146ZM4.68293 43.4146V45.7561H2.34146V43.4146H4.68293ZM4.68293 45.7561V48.0976H2.34146V45.7561H4.68293ZM4.68293 48.0976V50.439H2.34146V48.0976H4.68293ZM4.68293 50.439V52.7805H2.34146V50.439H4.68293ZM4.68293 52.7805V55.122H2.34146V52.7805H4.68293ZM4.68293 55.122V57.4634H2.34146V55.122H4.68293ZM4.68293 57.4634V59.8049H2.34146V57.4634H4.68293ZM7.02439 59.8049V62.1463H4.68293V59.8049H7.02439ZM7.02439 62.1463V64.4878H4.68293V62.1463H7.02439ZM7.02439 64.4878V66.8293H4.68293V64.4878H7.02439ZM7.02439 66.8293V69.1707H4.68293V66.8293H7.02439ZM7.02439 69.1707V71.5122H4.68293V69.1707H7.02439ZM7.02439 71.5122V73.8537H4.68293V71.5122H7.02439ZM7.02439 73.8537V76.1951H4.68293V73.8537H7.02439ZM7.02439 76.1951V78.5366H4.68293V76.1951H7.02439ZM9.36585 76.1951V78.5366H7.02439V76.1951H9.36585ZM11.7073 76.1951V78.5366H9.36585V76.1951H11.7073ZM11.7073 73.8537V76.1951H9.36585V73.8537H11.7073ZM11.7073 71.5122V73.8537H9.36585V71.5122H11.7073ZM11.7073 69.1707V71.5122H9.36585V69.1707H11.7073ZM11.7073 66.8293V69.1707H9.36585V66.8293H11.7073ZM11.7073 64.4878V66.8293H9.36585V64.4878H11.7073ZM11.7073 62.1463V64.4878H9.36585V62.1463H11.7073ZM11.7073 59.8049V62.1463H9.36585V59.8049H11.7073ZM9.36585 59.8049V62.1463H7.02439V59.8049H9.36585ZM9.36585 57.4634V59.8049H7.02439V57.4634H9.36585ZM9.36585 62.1463V64.4878H7.02439V62.1463H9.36585ZM9.36585 64.4878V66.8293H7.02439V64.4878H9.36585ZM9.36585 66.8293V69.1707H7.02439V66.8293H9.36585ZM9.36585 69.1707V71.5122H7.02439V69.1707H9.36585ZM9.36585 71.5122V73.8537H7.02439V71.5122H9.36585ZM9.36585 73.8537V76.1951H7.02439V73.8537H9.36585ZM4.68293 76.1951V78.5366H2.34146V76.1951H4.68293ZM4.68293 73.8537V76.1951H2.34146V73.8537H4.68293ZM4.68293 71.5122V73.8537H2.34146V71.5122H4.68293ZM4.68293 69.1707V71.5122H2.34146V69.1707H4.68293ZM4.68293 66.8293V69.1707H2.34146V66.8293H4.68293ZM4.68293 64.4878V66.8293H2.34146V64.4878H4.68293ZM4.68293 62.1463V64.4878H2.34146V62.1463H4.68293ZM4.68293 59.8049V62.1463H2.34146V59.8049H4.68293ZM2.34146 20V22.3415H0V20H2.34146ZM2.34146 22.3415V24.6829H0V22.3415H2.34146ZM2.34146 24.6829V27.0244H0V24.6829H2.34146ZM2.34146 27.0244V29.3659H0V27.0244H2.34146ZM2.34146 29.3659V31.7073H0V29.3659H2.34146ZM2.34146 31.7073V34.0488H0V31.7073H2.34146ZM2.34146 34.0488V36.3902H0V34.0488H2.34146ZM2.34146 36.3902V38.7317H0V36.3902H2.34146ZM2.34146 38.7317V41.0732H0V38.7317H2.34146ZM2.34146 41.0732V43.4146H0V41.0732H2.34146ZM9.36585 20V22.3415H7.02439V20H9.36585ZM9.36585 22.3415V24.6829H7.02439V22.3415H9.36585ZM9.36585 24.6829V27.0244H7.02439V24.6829H9.36585ZM9.36585 27.0244V29.3659H7.02439V27.0244H9.36585ZM9.36585 29.3659V31.7073H7.02439V29.3659H9.36585ZM9.36585 31.7073V34.0488H7.02439V31.7073H9.36585ZM9.36585 36.3902V38.7317H7.02439V36.3902H9.36585ZM9.36585 38.7317V41.0732H7.02439V38.7317H9.36585ZM9.36585 41.0732V43.4146H7.02439V41.0732H9.36585ZM9.36585 43.4146V45.7561H7.02439V43.4146H9.36585ZM9.36585 45.7561V48.0976H7.02439V45.7561H9.36585ZM9.36585 48.0976V50.439H7.02439V48.0976H9.36585ZM9.36585 50.439V52.7805H7.02439V50.439H9.36585ZM11.7073 52.7805V55.122H9.36585V52.7805H11.7073ZM11.7073 55.122V57.4634H9.36585V55.122H11.7073ZM11.7073 57.4634V59.8049H9.36585V57.4634H11.7073ZM11.7073 50.439V52.7805H9.36585V50.439H11.7073ZM11.7073 48.0976V50.439H9.36585V48.0976H11.7073ZM11.7073 45.7561V48.0976H9.36585V45.7561H11.7073ZM11.7073 43.4146V45.7561H9.36585V43.4146H11.7073ZM11.7073 41.0732V43.4146H9.36585V41.0732H11.7073ZM11.7073 38.7317V41.0732H9.36585V38.7317H11.7073ZM11.7073 36.3902V38.7317H9.36585V36.3902H11.7073ZM11.7073 34.0488V36.3902H9.36585V34.0488H11.7073ZM11.7073 31.7073V34.0488H9.36585V31.7073H11.7073ZM11.7073 29.3659V31.7073H9.36585V29.3659H11.7073ZM9.36585 34.0488V36.3902H7.02439V34.0488H9.36585ZM11.7073 27.0244V29.3659H9.36585V27.0244H11.7073ZM11.7073 24.6829V27.0244H9.36585V24.6829H11.7073ZM11.7073 22.3415V24.6829H9.36585V22.3415H11.7073ZM11.7073 20V22.3415H9.36585V20H11.7073ZM7.02439 20V22.3415H4.68293V20H7.02439ZM4.68293 20V22.3415H2.34146V20H4.68293ZM4.68293 22.3415V24.6829H2.34146V22.3415H4.68293ZM7.02439 22.3415V24.6829H4.68293V22.3415H7.02439ZM7.02439 24.6829V27.0244H4.68293V24.6829H7.02439ZM7.02439 27.0244V29.3659H4.68293V27.0244H7.02439ZM7.02439 29.3659V31.7073H4.68293V29.3659H7.02439ZM7.02439 31.7073V34.0488H4.68293V31.7073H7.02439ZM7.02439 34.0488V36.3902H4.68293V34.0488H7.02439ZM7.02439 36.3902V38.7317H4.68293V36.3902H7.02439ZM4.68293 38.7317V41.0732H2.34146V38.7317H4.68293ZM4.68293 41.0732V43.4146H2.34146V41.0732H4.68293ZM4.68293 36.3902V38.7317H2.34146V36.3902H4.68293ZM4.68293 34.0488V36.3902H2.34146V34.0488H4.68293ZM4.68293 31.7073V34.0488H2.34146V31.7073H4.68293ZM4.68293 29.3659V31.7073H2.34146V29.3659H4.68293ZM4.68293 27.0244V29.3659H2.34146V27.0244H4.68293ZM4.68293 24.6829V27.0244H2.34146V24.6829H4.68293ZM7.02439 38.7317V41.0732H4.68293V38.7317H7.02439ZM7.02439 41.0732V43.4146H4.68293V41.0732H7.02439ZM7.02439 43.4146V45.7561H4.68293V43.4146H7.02439ZM7.02439 45.7561V48.0976H4.68293V45.7561H7.02439ZM7.02439 48.0976V50.439H4.68293V48.0976H7.02439ZM7.02439 50.439V52.7805H4.68293V50.439H7.02439ZM7.02439 52.7805V55.122H4.68293V52.7805H7.02439ZM7.02439 55.122V57.4634H4.68293V55.122H7.02439ZM7.02439 57.4634V59.8049H4.68293V57.4634H7.02439ZM9.36585 55.122V57.4634H7.02439V55.122H9.36585ZM9.36585 52.7805V55.122H7.02439V52.7805H9.36585ZM46.8293 20V22.3415H44.4878V20H46.8293ZM46.8293 22.3415V24.6829H44.4878V22.3415H46.8293ZM46.8293 24.6829V27.0244H44.4878V24.6829H46.8293ZM46.8293 29.3659V31.7073H44.4878V29.3659H46.8293ZM46.8293 31.7073V34.0488H44.4878V31.7073H46.8293ZM46.8293 34.0488V36.3902H44.4878V34.0488H46.8293ZM46.8293 36.3902V38.7317H44.4878V36.3902H46.8293ZM46.8293 38.7317V41.0732H44.4878V38.7317H46.8293ZM46.8293 41.0732V43.4146H44.4878V41.0732H46.8293ZM46.8293 43.4146V45.7561H44.4878V43.4146H46.8293ZM49.1707 45.7561V48.0976H46.8293V45.7561H49.1707ZM49.1707 48.0976V50.439H46.8293V48.0976H49.1707ZM49.1707 50.439V52.7805H46.8293V50.439H49.1707ZM49.1707 52.7805V55.122H46.8293V52.7805H49.1707ZM49.1707 55.122V57.4634H46.8293V55.122H49.1707ZM49.1707 57.4634V59.8049H46.8293V57.4634H49.1707ZM51.5122 57.4634V59.8049H49.1707V57.4634H51.5122ZM51.5122 59.8049V62.1463H49.1707V59.8049H51.5122ZM51.5122 62.1463V64.4878H49.1707V62.1463H51.5122ZM51.5122 64.4878V66.8293H49.1707V64.4878H51.5122ZM51.5122 66.8293V69.1707H49.1707V66.8293H51.5122ZM51.5122 69.1707V71.5122H49.1707V69.1707H51.5122ZM51.5122 71.5122V73.8537H49.1707V71.5122H51.5122ZM51.5122 73.8537V76.1951H49.1707V73.8537H51.5122ZM51.5122 76.1951V78.5366H49.1707V76.1951H51.5122ZM49.1707 76.1951V78.5366H46.8293V76.1951H49.1707ZM49.1707 73.8537V76.1951H46.8293V73.8537H49.1707ZM49.1707 71.5122V73.8537H46.8293V71.5122H49.1707ZM49.1707 69.1707V71.5122H46.8293V69.1707H49.1707ZM49.1707 66.8293V69.1707H46.8293V66.8293H49.1707ZM49.1707 64.4878V66.8293H46.8293V64.4878H49.1707ZM49.1707 62.1463V64.4878H46.8293V62.1463H49.1707ZM46.8293 62.1463V64.4878H44.4878V62.1463H46.8293ZM46.8293 59.8049V62.1463H44.4878V59.8049H46.8293ZM49.1707 59.8049V62.1463H46.8293V59.8049H49.1707ZM46.8293 45.7561V48.0976H44.4878V45.7561H46.8293ZM46.8293 48.0976V50.439H44.4878V48.0976H46.8293ZM46.8293 50.439V52.7805H44.4878V50.439H46.8293ZM46.8293 52.7805V55.122H44.4878V52.7805H46.8293ZM46.8293 55.122V57.4634H44.4878V55.122H46.8293ZM46.8293 57.4634V59.8049H44.4878V57.4634H46.8293ZM46.8293 27.0244V29.3659H44.4878V27.0244H46.8293ZM46.8293 64.4878V66.8293H44.4878V64.4878H46.8293ZM46.8293 66.8293V69.1707H44.4878V66.8293H46.8293ZM46.8293 69.1707V71.5122H44.4878V69.1707H46.8293ZM46.8293 71.5122V73.8537H44.4878V71.5122H46.8293ZM46.8293 73.8537V76.1951H44.4878V73.8537H46.8293ZM46.8293 76.1951V78.5366H44.4878V76.1951H46.8293ZM53.8537 76.1951V78.5366H51.5122V76.1951H53.8537ZM56.1951 76.1951V78.5366H53.8537V76.1951H56.1951ZM56.1951 73.8537V76.1951H53.8537V73.8537H56.1951ZM56.1951 71.5122V73.8537H53.8537V71.5122H56.1951ZM56.1951 69.1707V71.5122H53.8537V69.1707H56.1951ZM56.1951 66.8293V69.1707H53.8537V66.8293H56.1951ZM56.1951 64.4878V66.8293H53.8537V64.4878H56.1951ZM56.1951 62.1463V64.4878H53.8537V62.1463H56.1951ZM56.1951 59.8049V62.1463H53.8537V59.8049H56.1951ZM56.1951 57.4634V59.8049H53.8537V57.4634H56.1951ZM56.1951 55.122V57.4634H53.8537V55.122H56.1951ZM56.1951 52.7805V55.122H53.8537V52.7805H56.1951ZM56.1951 50.439V52.7805H53.8537V50.439H56.1951ZM56.1951 48.0976V50.439H53.8537V48.0976H56.1951ZM56.1951 45.7561V48.0976H53.8537V45.7561H56.1951ZM56.1951 43.4146V45.7561H53.8537V43.4146H56.1951ZM56.1951 41.0732V43.4146H53.8537V41.0732H56.1951ZM56.1951 38.7317V41.0732H53.8537V38.7317H56.1951ZM56.1951 36.3902V38.7317H53.8537V36.3902H56.1951ZM56.1951 34.0488V36.3902H53.8537V34.0488H56.1951ZM49.1707 20V22.3415H46.8293V20H49.1707ZM51.5122 20V22.3415H49.1707V20H51.5122ZM53.8537 20V22.3415H51.5122V20H53.8537ZM56.1951 20V22.3415H53.8537V20H56.1951ZM56.1951 22.3415V24.6829H53.8537V22.3415H56.1951ZM56.1951 24.6829V27.0244H53.8537V24.6829H56.1951ZM56.1951 27.0244V29.3659H53.8537V27.0244H56.1951ZM56.1951 29.3659V31.7073H53.8537V29.3659H56.1951ZM56.1951 31.7073V34.0488H53.8537V31.7073H56.1951ZM49.1707 22.3415V24.6829H46.8293V22.3415H49.1707ZM51.5122 22.3415V24.6829H49.1707V22.3415H51.5122ZM53.8537 22.3415V24.6829H51.5122V22.3415H53.8537ZM53.8537 24.6829V27.0244H51.5122V24.6829H53.8537ZM53.8537 27.0244V29.3659H51.5122V27.0244H53.8537ZM53.8537 29.3659V31.7073H51.5122V29.3659H53.8537ZM53.8537 31.7073V34.0488H51.5122V31.7073H53.8537ZM51.5122 31.7073V34.0488H49.1707V31.7073H51.5122ZM51.5122 29.3659V31.7073H49.1707V29.3659H51.5122ZM51.5122 27.0244V29.3659H49.1707V27.0244H51.5122ZM51.5122 24.6829V27.0244H49.1707V24.6829H51.5122ZM49.1707 24.6829V27.0244H46.8293V24.6829H49.1707ZM49.1707 27.0244V29.3659H46.8293V27.0244H49.1707ZM49.1707 29.3659V31.7073H46.8293V29.3659H49.1707ZM49.1707 31.7073V34.0488H46.8293V31.7073H49.1707ZM49.1707 34.0488V36.3902H46.8293V34.0488H49.1707ZM49.1707 36.3902V38.7317H46.8293V36.3902H49.1707ZM49.1707 38.7317V41.0732H46.8293V38.7317H49.1707ZM49.1707 41.0732V43.4146H46.8293V41.0732H49.1707ZM51.5122 41.0732V43.4146H49.1707V41.0732H51.5122ZM51.5122 38.7317V41.0732H49.1707V38.7317H51.5122ZM51.5122 36.3902V38.7317H49.1707V36.3902H51.5122ZM51.5122 34.0488V36.3902H49.1707V34.0488H51.5122ZM53.8537 34.0488V36.3902H51.5122V34.0488H53.8537ZM53.8537 36.3902V38.7317H51.5122V36.3902H53.8537ZM53.8537 38.7317V41.0732H51.5122V38.7317H53.8537ZM53.8537 41.0732V43.4146H51.5122V41.0732H53.8537ZM53.8537 43.4146V45.7561H51.5122V43.4146H53.8537ZM53.8537 45.7561V48.0976H51.5122V45.7561H53.8537ZM53.8537 48.0976V50.439H51.5122V48.0976H53.8537ZM53.8537 50.439V52.7805H51.5122V50.439H53.8537ZM53.8537 52.7805V55.122H51.5122V52.7805H53.8537ZM53.8537 55.122V57.4634H51.5122V55.122H53.8537ZM51.5122 55.122V57.4634H49.1707V55.122H51.5122ZM51.5122 52.7805V55.122H49.1707V52.7805H51.5122ZM51.5122 50.439V52.7805H49.1707V50.439H51.5122ZM51.5122 48.0976V50.439H49.1707V48.0976H51.5122ZM51.5122 45.7561V48.0976H49.1707V45.7561H51.5122ZM49.1707 43.4146V45.7561H46.8293V43.4146H49.1707ZM51.5122 43.4146V45.7561H49.1707V43.4146H51.5122ZM53.8537 57.4634V59.8049H51.5122V57.4634H53.8537ZM53.8537 59.8049V62.1463H51.5122V59.8049H53.8537ZM53.8537 62.1463V64.4878H51.5122V62.1463H53.8537ZM53.8537 64.4878V66.8293H51.5122V64.4878H53.8537ZM53.8537 66.8293V69.1707H51.5122V66.8293H53.8537ZM53.8537 69.1707V71.5122H51.5122V69.1707H53.8537ZM53.8537 71.5122V73.8537H51.5122V71.5122H53.8537ZM53.8537 73.8537V76.1951H51.5122V73.8537H53.8537ZM28.0976 48.0976V50.439H25.7561V48.0976H28.0976ZM28.0976 45.7561V48.0976H25.7561V45.7561H28.0976ZM28.0976 43.4146V45.7561H25.7561V43.4146H28.0976ZM28.0976 41.0732V43.4146H25.7561V41.0732H28.0976ZM28.0976 38.7317V41.0732H25.7561V38.7317H28.0976ZM28.0976 36.3902V38.7317H25.7561V36.3902H28.0976ZM28.0976 50.439V52.7805H25.7561V50.439H28.0976ZM32.7805 34.0488V36.3902H30.439V34.0488H32.7805ZM35.122 31.7073V34.0488H32.7805V31.7073H35.122ZM37.4634 29.3659V31.7073H35.122V29.3659H37.4634ZM39.8049 27.0244V29.3659H37.4634V27.0244H39.8049ZM25.7561 34.0488V36.3902H23.4146V34.0488H25.7561ZM23.4146 31.7073V34.0488H21.0732V31.7073H23.4146ZM21.0732 29.3659V31.7073H18.7317V29.3659H21.0732ZM18.7317 27.0244V29.3659H16.3902V27.0244H18.7317ZM32.7805 48.0976V50.439H30.439V48.0976H32.7805ZM35.122 45.7561V48.0976H32.7805V45.7561H35.122ZM37.4634 43.4146V45.7561H35.122V43.4146H37.4634ZM39.8049 41.0732V43.4146H37.4634V41.0732H39.8049ZM25.7561 48.0976V50.439H23.4146V48.0976H25.7561ZM23.4146 45.7561V48.0976H21.0732V45.7561H23.4146ZM21.0732 43.4146V45.7561H18.7317V43.4146H21.0732ZM18.7317 41.0732V43.4146H16.3902V41.0732H18.7317ZM14.0488 22.3415V24.6829H11.7073V22.3415H14.0488ZM16.3902 24.6829V27.0244H14.0488V24.6829H16.3902ZM42.1463 24.6829V27.0244H39.8049V24.6829H42.1463ZM44.4878 22.3415V24.6829H42.1463V22.3415H44.4878ZM16.3902 31.7073V34.0488H14.0488V31.7073H16.3902ZM16.3902 38.7317V41.0732H14.0488V38.7317H16.3902ZM16.3902 36.3902V38.7317H14.0488V36.3902H16.3902ZM14.0488 36.3902V38.7317H11.7073V36.3902H14.0488ZM42.1463 38.7317V41.0732H39.8049V38.7317H42.1463ZM44.4878 36.3902V38.7317H42.1463V36.3902H44.4878ZM44.4878 34.0488V36.3902H42.1463V34.0488H44.4878ZM44.4878 31.7073V34.0488H42.1463V31.7073H44.4878ZM44.4878 29.3659V31.7073H42.1463V29.3659H44.4878ZM44.4878 27.0244V29.3659H42.1463V27.0244H44.4878ZM44.4878 24.6829V27.0244H42.1463V24.6829H44.4878ZM42.1463 27.0244V29.3659H39.8049V27.0244H42.1463ZM42.1463 29.3659V31.7073H39.8049V29.3659H42.1463ZM42.1463 31.7073V34.0488H39.8049V31.7073H42.1463ZM42.1463 34.0488V36.3902H39.8049V34.0488H42.1463ZM42.1463 36.3902V38.7317H39.8049V36.3902H42.1463ZM39.8049 29.3659V31.7073H37.4634V29.3659H39.8049ZM39.8049 31.7073V34.0488H37.4634V31.7073H39.8049ZM39.8049 34.0488V36.3902H37.4634V34.0488H39.8049ZM39.8049 36.3902V38.7317H37.4634V36.3902H39.8049ZM39.8049 38.7317V41.0732H37.4634V38.7317H39.8049ZM37.4634 31.7073V34.0488H35.122V31.7073H37.4634ZM37.4634 34.0488V36.3902H35.122V34.0488H37.4634ZM37.4634 36.3902V38.7317H35.122V36.3902H37.4634ZM37.4634 38.7317V41.0732H35.122V38.7317H37.4634ZM37.4634 41.0732V43.4146H35.122V41.0732H37.4634ZM35.122 34.0488V36.3902H32.7805V34.0488H35.122ZM35.122 36.3902V38.7317H32.7805V36.3902H35.122ZM35.122 38.7317V41.0732H32.7805V38.7317H35.122ZM35.122 41.0732V43.4146H32.7805V41.0732H35.122ZM35.122 43.4146V45.7561H32.7805V43.4146H35.122ZM32.7805 36.3902V38.7317H30.439V36.3902H32.7805ZM32.7805 38.7317V41.0732H30.439V38.7317H32.7805ZM32.7805 41.0732V43.4146H30.439V41.0732H32.7805ZM32.7805 43.4146V45.7561H30.439V43.4146H32.7805ZM32.7805 45.7561V48.0976H30.439V45.7561H32.7805ZM25.7561 45.7561V48.0976H23.4146V45.7561H25.7561ZM25.7561 43.4146V45.7561H23.4146V43.4146H25.7561ZM23.4146 43.4146V45.7561H21.0732V43.4146H23.4146ZM23.4146 41.0732V43.4146H21.0732V41.0732H23.4146ZM21.0732 41.0732V43.4146H18.7317V41.0732H21.0732ZM21.0732 38.7317V41.0732H18.7317V38.7317H21.0732ZM18.7317 38.7317V41.0732H16.3902V38.7317H18.7317ZM18.7317 36.3902V38.7317H16.3902V36.3902H18.7317ZM16.3902 34.0488V36.3902H14.0488V34.0488H16.3902ZM14.0488 34.0488V36.3902H11.7073V34.0488H14.0488ZM14.0488 31.7073V34.0488H11.7073V31.7073H14.0488ZM14.0488 29.3659V31.7073H11.7073V29.3659H14.0488ZM14.0488 27.0244V29.3659H11.7073V27.0244H14.0488ZM14.0488 24.6829V27.0244H11.7073V24.6829H14.0488ZM16.3902 27.0244V29.3659H14.0488V27.0244H16.3902ZM16.3902 29.3659V31.7073H14.0488V29.3659H16.3902ZM18.7317 29.3659V31.7073H16.3902V29.3659H18.7317ZM18.7317 31.7073V34.0488H16.3902V31.7073H18.7317ZM21.0732 31.7073V34.0488H18.7317V31.7073H21.0732ZM21.0732 34.0488V36.3902H18.7317V34.0488H21.0732ZM23.4146 34.0488V36.3902H21.0732V34.0488H23.4146ZM23.4146 36.3902V38.7317H21.0732V36.3902H23.4146ZM25.7561 36.3902V38.7317H23.4146V36.3902H25.7561ZM25.7561 38.7317V41.0732H23.4146V38.7317H25.7561ZM25.7561 41.0732V43.4146H23.4146V41.0732H25.7561ZM23.4146 38.7317V41.0732H21.0732V38.7317H23.4146ZM21.0732 36.3902V38.7317H18.7317V36.3902H21.0732ZM18.7317 34.0488V36.3902H16.3902V34.0488H18.7317ZM30.439 36.3902V38.7317H28.0976V36.3902H30.439ZM30.439 38.7317V41.0732H28.0976V38.7317H30.439ZM30.439 41.0732V43.4146H28.0976V41.0732H30.439ZM30.439 43.4146V45.7561H28.0976V43.4146H30.439ZM30.439 45.7561V48.0976H28.0976V45.7561H30.439ZM30.439 48.0976V50.439H28.0976V48.0976H30.439ZM30.439 50.439V52.7805H28.0976V50.439H30.439Z" fill="white"/>
<path d="M72.5556 64.4878V62.1463H74.8971V64.4878H72.5556ZM70.2142 64.4878V62.1463H72.5556V64.4878H70.2142ZM67.8727 64.4878V62.1463H70.2142V64.4878H67.8727ZM65.5312 64.4878V62.1463H67.8727V64.4878H65.5312ZM63.1898 64.4878V62.1463H65.5312V64.4878H63.1898ZM63.1898 66.8293V64.4878H65.5312V66.8293H63.1898ZM63.1898 69.1707V66.8293H65.5312V69.1707H63.1898ZM65.5312 69.1707V66.8293H67.8727V69.1707H65.5312ZM67.8727 69.1707V66.8293H70.2142V69.1707H67.8727ZM70.2142 69.1707V66.8293H72.5556V69.1707H70.2142ZM70.2142 66.8293V64.4878H72.5556V66.8293H70.2142ZM72.5556 66.8293V64.4878H74.8971V66.8293H72.5556ZM67.8727 66.8293V64.4878H70.2142V66.8293H67.8727ZM65.5312 66.8293V64.4878H67.8727V66.8293H65.5312ZM72.5556 69.1707V66.8293H74.8971V69.1707H72.5556ZM74.8971 69.1707V66.8293H77.2386V69.1707H74.8971ZM74.8971 71.5122V69.1707H77.2386V71.5122H74.8971ZM72.5556 71.5122V69.1707H74.8971V71.5122H72.5556ZM70.2142 71.5122V69.1707H72.5556V71.5122H70.2142ZM67.8727 71.5122V69.1707H70.2142V71.5122H67.8727ZM65.5312 71.5122V69.1707H67.8727V71.5122H65.5312ZM65.5312 73.8537V71.5122H67.8727V73.8537H65.5312ZM67.8727 73.8537V71.5122H70.2142V73.8537H67.8727ZM70.2142 73.8537V71.5122H72.5556V73.8537H70.2142ZM72.5556 73.8537V71.5122H74.8971V73.8537H72.5556ZM74.8971 73.8537V71.5122H77.2386V73.8537H74.8971ZM70.2142 76.1951V73.8537H72.5556V76.1951H70.2142ZM67.8727 76.1951V73.8537H70.2142V76.1951H67.8727ZM72.5556 76.1951V73.8537H74.8971V76.1951H72.5556ZM72.5556 78.5366V76.1951H74.8971V78.5366H72.5556ZM74.8971 78.5366V76.1951H77.2386V78.5366H74.8971ZM74.8971 76.1951V73.8537H77.2386V76.1951H74.8971ZM77.2386 76.1951V73.8537H79.58V76.1951H77.2386ZM77.2386 78.5366V76.1951H79.58V78.5366H77.2386ZM77.2386 73.8537V71.5122H79.58V73.8537H77.2386ZM79.58 73.8537V71.5122H81.9215V73.8537H79.58ZM79.58 71.5122V69.1707H81.9215V71.5122H79.58ZM77.2386 71.5122V69.1707H79.58V71.5122H77.2386ZM81.9215 71.5122V69.1707H84.263V71.5122H81.9215ZM81.9215 73.8537V71.5122H84.263V73.8537H81.9215ZM81.9215 76.1951V73.8537H84.263V76.1951H81.9215ZM81.9215 78.5366V76.1951H84.263V78.5366H81.9215ZM79.58 78.5366V76.1951H81.9215V78.5366H79.58ZM79.58 76.1951V73.8537H81.9215V76.1951H79.58ZM84.263 78.5366V76.1951H86.6044V78.5366H84.263ZM88.9459 76.1951V73.8537H91.2873V76.1951H88.9459ZM88.9459 73.8537V71.5122H91.2873V73.8537H88.9459ZM88.9459 71.5122V69.1707H91.2873V71.5122H88.9459ZM86.6044 71.5122V69.1707H88.9459V71.5122H86.6044ZM84.263 71.5122V69.1707H86.6044V71.5122H84.263ZM84.263 73.8537V71.5122H86.6044V73.8537H84.263ZM84.263 76.1951V73.8537H86.6044V76.1951H84.263ZM86.6044 76.1951V73.8537H88.9459V76.1951H86.6044ZM86.6044 73.8537V71.5122H88.9459V73.8537H86.6044ZM91.2873 73.8537V71.5122H93.6288V73.8537H91.2873ZM91.2873 76.1951V73.8537H93.6288V76.1951H91.2873ZM93.6288 76.1951V73.8537H95.9703V76.1951H93.6288ZM93.6288 73.8537V71.5122H95.9703V73.8537H93.6288ZM95.9703 73.8537V71.5122H98.3117V73.8537H95.9703ZM95.9703 71.5122V69.1707H98.3117V71.5122H95.9703ZM95.9703 69.1707V66.8293H98.3117V69.1707H95.9703ZM93.6288 69.1707V66.8293H95.9703V69.1707H93.6288ZM93.6288 71.5122V69.1707H95.9703V71.5122H93.6288ZM91.2873 71.5122V69.1707H93.6288V71.5122H91.2873ZM91.2873 69.1707V66.8293H93.6288V69.1707H91.2873ZM88.9459 69.1707V66.8293H91.2873V69.1707H88.9459ZM98.3117 69.1707V66.8293H100.653V69.1707H98.3117ZM98.3117 66.8293V64.4878H100.653V66.8293H98.3117ZM98.3117 64.4878V62.1463H100.653V64.4878H98.3117ZM98.3117 62.1463V59.8049H100.653V62.1463H98.3117ZM98.3117 59.8049V57.4634H100.653V59.8049H98.3117ZM98.3117 57.4634V55.122H100.653V57.4634H98.3117ZM98.3117 55.122V52.7805H100.653V55.122H98.3117ZM98.3117 52.7805V50.439H100.653V52.7805H98.3117ZM98.3117 50.439V48.0976H100.653V50.439H98.3117ZM98.3117 48.0976V45.7561H100.653V48.0976H98.3117ZM95.9703 48.0976V45.7561H98.3117V48.0976H95.9703ZM95.9703 45.7561V43.4146H98.3117V45.7561H95.9703ZM98.3117 45.7561V43.4146H100.653V45.7561H98.3117ZM93.6288 45.7561V43.4146H95.9703V45.7561H93.6288ZM91.2873 45.7561V43.4146H93.6288V45.7561H91.2873ZM88.9459 45.7561V43.4146H91.2873V45.7561H88.9459ZM86.6044 45.7561V43.4146H88.9459V45.7561H86.6044ZM88.9459 48.0976V45.7561H91.2873V48.0976H88.9459ZM88.9459 50.439V48.0976H91.2873V50.439H88.9459ZM88.9459 52.7805V50.439H91.2873V52.7805H88.9459ZM88.9459 55.122V52.7805H91.2873V55.122H88.9459ZM88.9459 57.4634V55.122H91.2873V57.4634H88.9459ZM88.9459 59.8049V57.4634H91.2873V59.8049H88.9459ZM88.9459 62.1463V59.8049H91.2873V62.1463H88.9459ZM88.9459 64.4878V62.1463H91.2873V64.4878H88.9459ZM88.9459 66.8293V64.4878H91.2873V66.8293H88.9459ZM91.2873 66.8293V64.4878H93.6288V66.8293H91.2873ZM93.6288 66.8293V64.4878H95.9703V66.8293H93.6288ZM95.9703 66.8293V64.4878H98.3117V66.8293H95.9703ZM95.9703 64.4878V62.1463H98.3117V64.4878H95.9703ZM95.9703 62.1463V59.8049H98.3117V62.1463H95.9703ZM95.9703 59.8049V57.4634H98.3117V59.8049H95.9703ZM95.9703 57.4634V55.122H98.3117V57.4634H95.9703ZM95.9703 55.122V52.7805H98.3117V55.122H95.9703ZM95.9703 52.7805V50.439H98.3117V52.7805H95.9703ZM95.9703 50.439V48.0976H98.3117V50.439H95.9703ZM93.6288 48.0976V45.7561H95.9703V48.0976H93.6288ZM91.2873 48.0976V45.7561H93.6288V48.0976H91.2873ZM91.2873 50.439V48.0976H93.6288V50.439H91.2873ZM91.2873 52.7805V50.439H93.6288V52.7805H91.2873ZM91.2873 55.122V52.7805H93.6288V55.122H91.2873ZM91.2873 57.4634V55.122H93.6288V57.4634H91.2873ZM93.6288 57.4634V55.122H95.9703V57.4634H93.6288ZM93.6288 59.8049V57.4634H95.9703V59.8049H93.6288ZM93.6288 62.1463V59.8049H95.9703V62.1463H93.6288ZM93.6288 64.4878V62.1463H95.9703V64.4878H93.6288ZM91.2873 64.4878V62.1463H93.6288V64.4878H91.2873ZM91.2873 62.1463V59.8049H93.6288V62.1463H91.2873ZM91.2873 59.8049V57.4634H93.6288V59.8049H91.2873ZM93.6288 52.7805V50.439H95.9703V52.7805H93.6288ZM93.6288 50.439V48.0976H95.9703V50.439H93.6288ZM93.6288 55.122V52.7805H95.9703V55.122H93.6288ZM72.5556 48.0976V45.7561H74.8971V48.0976H72.5556ZM70.2142 48.0976V45.7561H72.5556V48.0976H70.2142ZM67.8727 48.0976V45.7561H70.2142V48.0976H67.8727ZM65.5312 48.0976V45.7561H67.8727V48.0976H65.5312ZM63.1898 48.0976V45.7561H65.5312V48.0976H63.1898ZM63.1898 45.7561V43.4146H65.5312V45.7561H63.1898ZM65.5312 45.7561V43.4146H67.8727V45.7561H65.5312ZM67.8727 45.7561V43.4146H70.2142V45.7561H67.8727ZM70.2142 45.7561V43.4146H72.5556V45.7561H70.2142ZM72.5556 45.7561V43.4146H74.8971V45.7561H72.5556ZM74.8971 45.7561V43.4146H77.2386V45.7561H74.8971ZM74.8971 43.4146V41.0732H77.2386V43.4146H74.8971ZM72.5556 43.4146V41.0732H74.8971V43.4146H72.5556ZM70.2142 43.4146V41.0732H72.5556V43.4146H70.2142ZM67.8727 43.4146V41.0732H70.2142V43.4146H67.8727ZM67.8727 41.0732V38.7317H70.2142V41.0732H67.8727ZM65.5312 41.0732V38.7317H67.8727V41.0732H65.5312ZM65.5312 43.4146V41.0732H67.8727V43.4146H65.5312ZM67.8727 38.7317V36.3902H70.2142V38.7317H67.8727ZM70.2142 38.7317V36.3902H72.5556V38.7317H70.2142ZM70.2142 41.0732V38.7317H72.5556V41.0732H70.2142ZM72.5556 41.0732V38.7317H74.8971V41.0732H72.5556ZM72.5556 38.7317V36.3902H74.8971V38.7317H72.5556ZM72.5556 36.3902V34.0488H74.8971V36.3902H72.5556ZM74.8971 36.3902V34.0488H77.2386V36.3902H74.8971ZM77.2386 36.3902V34.0488H79.58V36.3902H77.2386ZM79.58 36.3902V34.0488H81.9215V36.3902H79.58ZM81.9215 36.3902V34.0488H84.263V36.3902H81.9215ZM84.263 36.3902V34.0488H86.6044V36.3902H84.263ZM86.6044 36.3902V34.0488H88.9459V36.3902H86.6044ZM88.9459 36.3902V34.0488H91.2873V36.3902H88.9459ZM86.6044 38.7317V36.3902H88.9459V38.7317H86.6044ZM84.263 38.7317V36.3902H86.6044V38.7317H84.263ZM81.9215 38.7317V36.3902H84.263V38.7317H81.9215ZM79.58 38.7317V36.3902H81.9215V38.7317H79.58ZM77.2386 38.7317V36.3902H79.58V38.7317H77.2386ZM74.8971 38.7317V36.3902H77.2386V38.7317H74.8971ZM74.8971 41.0732V38.7317H77.2386V41.0732H74.8971ZM77.2386 41.0732V38.7317H79.58V41.0732H77.2386ZM79.58 41.0732V38.7317H81.9215V41.0732H79.58ZM81.9215 41.0732V38.7317H84.263V41.0732H81.9215ZM84.263 41.0732V38.7317H86.6044V41.0732H84.263ZM86.6044 41.0732V38.7317H88.9459V41.0732H86.6044ZM88.9459 38.7317V36.3902H91.2873V38.7317H88.9459ZM91.2873 38.7317V36.3902H93.6288V38.7317H91.2873ZM93.6288 38.7317V36.3902H95.9703V38.7317H93.6288ZM93.6288 41.0732V38.7317H95.9703V41.0732H93.6288ZM95.9703 41.0732V38.7317H98.3117V41.0732H95.9703ZM95.9703 43.4146V41.0732H98.3117V43.4146H95.9703ZM93.6288 43.4146V41.0732H95.9703V43.4146H93.6288ZM91.2873 43.4146V41.0732H93.6288V43.4146H91.2873ZM88.9459 43.4146V41.0732H91.2873V43.4146H88.9459ZM86.6044 43.4146V41.0732H88.9459V43.4146H86.6044ZM84.263 43.4146V41.0732H86.6044V43.4146H84.263ZM81.9215 43.4146V41.0732H84.263V43.4146H81.9215ZM79.58 43.4146V41.0732H81.9215V43.4146H79.58ZM77.2386 43.4146V41.0732H79.58V43.4146H77.2386ZM88.9459 41.0732V38.7317H91.2873V41.0732H88.9459ZM91.2873 41.0732V38.7317H93.6288V41.0732H91.2873ZM65.5312 62.1463V59.8049H67.8727V62.1463H65.5312ZM67.8727 62.1463V59.8049H70.2142V62.1463H67.8727ZM70.2142 62.1463V59.8049H72.5556V62.1463H70.2142ZM72.5556 62.1463V59.8049H74.8971V62.1463H72.5556ZM67.8727 59.8049V57.4634H70.2142V59.8049H67.8727ZM70.2142 59.8049V57.4634H72.5556V59.8049H70.2142ZM74.8971 59.8049V57.4634H77.2386V59.8049H74.8971ZM77.2386 59.8049V57.4634H79.58V59.8049H77.2386ZM79.58 59.8049V57.4634H81.9215V59.8049H79.58ZM81.9215 59.8049V57.4634H84.263V59.8049H81.9215ZM84.263 59.8049V57.4634H86.6044V59.8049H84.263ZM86.6044 59.8049V57.4634H88.9459V59.8049H86.6044ZM72.5556 59.8049V57.4634H74.8971V59.8049H72.5556ZM65.5312 59.8049V57.4634H67.8727V59.8049H65.5312ZM67.8727 57.4634V55.122H70.2142V57.4634H67.8727ZM70.2142 57.4634V55.122H72.5556V57.4634H70.2142ZM72.5556 57.4634V55.122H74.8971V57.4634H72.5556ZM74.8971 57.4634V55.122H77.2386V57.4634H74.8971ZM77.2386 57.4634V55.122H79.58V57.4634H77.2386ZM79.58 57.4634V55.122H81.9215V57.4634H79.58ZM81.9215 57.4634V55.122H84.263V57.4634H81.9215ZM84.263 57.4634V55.122H86.6044V57.4634H84.263ZM86.6044 57.4634V55.122H88.9459V57.4634H86.6044ZM86.6044 55.122V52.7805H88.9459V55.122H86.6044ZM84.263 55.122V52.7805H86.6044V55.122H84.263ZM81.9215 55.122V52.7805H84.263V55.122H81.9215ZM77.2386 55.122V52.7805H79.58V55.122H77.2386ZM74.8971 55.122V52.7805H77.2386V55.122H74.8971ZM72.5556 55.122V52.7805H74.8971V55.122H72.5556ZM79.58 55.122V52.7805H81.9215V55.122H79.58ZM100.653 69.1707V71.5122H98.3117V69.1707H100.653ZM100.653 71.5122V73.8537H98.3117V71.5122H100.653ZM100.653 73.8537V76.1951H98.3117V73.8537H100.653ZM100.653 76.1951V78.5366H98.3117V76.1951H100.653ZM98.3117 76.1951V78.5366H95.9703V76.1951H98.3117ZM98.3117 73.8537V76.1951H95.9703V73.8537H98.3117ZM95.9703 76.1951V78.5366H93.6288V76.1951H95.9703ZM93.6288 76.1951V78.5366H91.2873V76.1951H93.6288ZM91.2873 76.1951V78.5366H88.9459V76.1951H91.2873ZM88.9459 66.8293V69.1707H86.6044V66.8293H88.9459ZM72.5556 76.1951V78.5366H70.2142V76.1951H72.5556ZM77.2386 59.8049V62.1463H74.8971V59.8049H77.2386Z" fill="white"/>
<path d="M112.404 34.0488V36.3902H110.062V34.0488H112.404ZM114.745 34.0488V36.3902H112.404V34.0488H114.745ZM117.087 34.0488V36.3902H114.745V34.0488H117.087ZM119.428 34.0488V36.3902H117.087V34.0488H119.428ZM119.428 36.3902V38.7317H117.087V36.3902H119.428ZM121.77 36.3902V38.7317H119.428V36.3902H121.77ZM121.77 38.7317V41.0732H119.428V38.7317H121.77ZM121.77 34.0488V36.3902H119.428V34.0488H121.77ZM121.77 41.0732V43.4146H119.428V41.0732H121.77ZM121.77 43.4146V45.7561H119.428V43.4146H121.77ZM121.77 45.7561V48.0976H119.428V45.7561H121.77ZM121.77 48.0976V50.439H119.428V48.0976H121.77ZM121.77 50.439V52.7805H119.428V50.439H121.77ZM121.77 52.7805V55.122H119.428V52.7805H121.77ZM121.77 55.122V57.4634H119.428V55.122H121.77ZM121.77 57.4634V59.8049H119.428V57.4634H121.77ZM121.77 59.8049V62.1463H119.428V59.8049H121.77ZM119.428 59.8049V62.1463H117.087V59.8049H119.428ZM117.087 62.1463V64.4878H114.745V62.1463H117.087ZM114.745 62.1463V64.4878H112.404V62.1463H114.745ZM112.404 62.1463V64.4878H110.062V62.1463H112.404ZM112.404 59.8049V62.1463H110.062V59.8049H112.404ZM112.404 57.4634V59.8049H110.062V57.4634H112.404ZM112.404 55.122V57.4634H110.062V55.122H112.404ZM112.404 52.7805V55.122H110.062V52.7805H112.404ZM114.745 52.7805V55.122H112.404V52.7805H114.745ZM114.745 50.439V52.7805H112.404V50.439H114.745ZM114.745 48.0976V50.439H112.404V48.0976H114.745ZM114.745 45.7561V48.0976H112.404V45.7561H114.745ZM114.745 43.4146V45.7561H112.404V43.4146H114.745ZM114.745 41.0732V43.4146H112.404V41.0732H114.745ZM114.745 38.7317V41.0732H112.404V38.7317H114.745ZM114.745 36.3902V38.7317H112.404V36.3902H114.745ZM112.404 36.3902V38.7317H110.062V36.3902H112.404ZM112.404 38.7317V41.0732H110.062V38.7317H112.404ZM112.404 41.0732V43.4146H110.062V41.0732H112.404ZM112.404 43.4146V45.7561H110.062V43.4146H112.404ZM112.404 45.7561V48.0976H110.062V45.7561H112.404ZM112.404 48.0976V50.439H110.062V48.0976H112.404ZM112.404 50.439V52.7805H110.062V50.439H112.404ZM117.087 45.7561V48.0976H114.745V45.7561H117.087ZM117.087 43.4146V45.7561H114.745V43.4146H117.087ZM117.087 41.0732V43.4146H114.745V41.0732H117.087ZM117.087 38.7317V41.0732H114.745V38.7317H117.087ZM117.087 36.3902V38.7317H114.745V36.3902H117.087ZM119.428 45.7561V48.0976H117.087V45.7561H119.428ZM119.428 48.0976V50.439H117.087V48.0976H119.428ZM119.428 43.4146V45.7561H117.087V43.4146H119.428ZM119.428 41.0732V43.4146H117.087V41.0732H119.428ZM119.428 38.7317V41.0732H117.087V38.7317H119.428ZM117.087 52.7805V55.122H114.745V52.7805H117.087ZM117.087 50.439V52.7805H114.745V50.439H117.087ZM117.087 48.0976V50.439H114.745V48.0976H117.087ZM119.428 50.439V52.7805H117.087V50.439H119.428ZM119.428 52.7805V55.122H117.087V52.7805H119.428ZM119.428 55.122V57.4634H117.087V55.122H119.428ZM117.087 57.4634V59.8049H114.745V57.4634H117.087ZM117.087 59.8049V62.1463H114.745V59.8049H117.087ZM117.087 55.122V57.4634H114.745V55.122H117.087ZM114.745 55.122V57.4634H112.404V55.122H114.745ZM114.745 57.4634V59.8049H112.404V57.4634H114.745ZM114.745 59.8049V62.1463H112.404V59.8049H114.745ZM119.428 57.4634V59.8049H117.087V57.4634H119.428ZM117.087 64.4878V66.8293H114.745V64.4878H117.087ZM114.745 64.4878V66.8293H112.404V64.4878H114.745ZM119.428 64.4878V66.8293H117.087V64.4878H119.428ZM119.428 62.1463V64.4878H117.087V62.1463H119.428ZM121.77 62.1463V64.4878H119.428V62.1463H121.77ZM124.111 62.1463V64.4878H121.77V62.1463H124.111ZM124.111 64.4878V66.8293H121.77V64.4878H124.111ZM121.77 64.4878V66.8293H119.428V64.4878H121.77ZM126.453 64.4878V66.8293H124.111V64.4878H126.453ZM117.087 66.8293V69.1707H114.745V66.8293H117.087ZM119.428 66.8293V69.1707H117.087V66.8293H119.428ZM121.77 66.8293V69.1707H119.428V66.8293H121.77ZM124.111 66.8293V69.1707H121.77V66.8293H124.111ZM126.453 66.8293V69.1707H124.111V66.8293H126.453ZM128.794 66.8293V69.1707H126.453V66.8293H128.794ZM131.136 66.8293V69.1707H128.794V66.8293H131.136ZM133.477 66.8293V69.1707H131.136V66.8293H133.477ZM135.819 66.8293V69.1707H133.477V66.8293H135.819ZM138.16 66.8293V69.1707H135.819V66.8293H138.16ZM140.502 66.8293V69.1707H138.16V66.8293H140.502ZM142.843 66.8293V69.1707H140.502V66.8293H142.843ZM140.502 64.4878V66.8293H138.16V64.4878H140.502ZM138.16 64.4878V66.8293H135.819V64.4878H138.16ZM135.819 64.4878V66.8293H133.477V64.4878H135.819ZM133.477 64.4878V66.8293H131.136V64.4878H133.477ZM135.819 62.1463V64.4878H133.477V62.1463H135.819ZM138.16 62.1463V64.4878H135.819V62.1463H138.16ZM140.502 62.1463V64.4878H138.16V62.1463H140.502ZM142.843 62.1463V64.4878H140.502V62.1463H142.843ZM145.184 62.1463V64.4878H142.843V62.1463H145.184ZM145.184 64.4878V66.8293H142.843V64.4878H145.184ZM142.843 64.4878V66.8293H140.502V64.4878H142.843ZM147.526 62.1463V64.4878H145.184V62.1463H147.526ZM126.453 76.1951V78.5366H124.111V76.1951H126.453ZM126.453 73.8537V76.1951H124.111V73.8537H126.453ZM126.453 71.5122V73.8537H124.111V71.5122H126.453ZM128.794 71.5122V73.8537H126.453V71.5122H128.794ZM128.794 69.1707V71.5122H126.453V69.1707H128.794ZM131.136 69.1707V71.5122H128.794V69.1707H131.136ZM133.477 69.1707V71.5122H131.136V69.1707H133.477ZM133.477 71.5122V73.8537H131.136V71.5122H133.477ZM133.477 73.8537V76.1951H131.136V73.8537H133.477ZM133.477 76.1951V78.5366H131.136V76.1951H133.477ZM131.136 76.1951V78.5366H128.794V76.1951H131.136ZM128.794 76.1951V78.5366H126.453V76.1951H128.794ZM128.794 73.8537V76.1951H126.453V73.8537H128.794ZM131.136 71.5122V73.8537H128.794V71.5122H131.136ZM131.136 73.8537V76.1951H128.794V73.8537H131.136ZM135.819 71.5122V73.8537H133.477V71.5122H135.819ZM135.819 69.1707V71.5122H133.477V69.1707H135.819ZM138.16 69.1707V71.5122H135.819V69.1707H138.16ZM140.502 69.1707V71.5122H138.16V69.1707H140.502ZM138.16 71.5122V73.8537H135.819V71.5122H138.16ZM135.819 73.8537V76.1951H133.477V73.8537H135.819ZM119.428 69.1707V71.5122H117.087V69.1707H119.428ZM121.77 69.1707V71.5122H119.428V69.1707H121.77ZM121.77 71.5122V73.8537H119.428V71.5122H121.77ZM124.111 71.5122V73.8537H121.77V71.5122H124.111ZM124.111 73.8537V76.1951H121.77V73.8537H124.111ZM126.453 69.1707V71.5122H124.111V69.1707H126.453ZM124.111 69.1707V71.5122H121.77V69.1707H124.111ZM138.16 59.8049V62.1463H135.819V59.8049H138.16ZM138.16 57.4634V59.8049H135.819V57.4634H138.16ZM138.16 55.122V57.4634H135.819V55.122H138.16ZM138.16 52.7805V55.122H135.819V52.7805H138.16ZM140.502 52.7805V55.122H138.16V52.7805H140.502ZM142.843 52.7805V55.122H140.502V52.7805H142.843ZM145.184 52.7805V55.122H142.843V52.7805H145.184ZM147.526 52.7805V55.122H145.184V52.7805H147.526ZM147.526 55.122V57.4634H145.184V55.122H147.526ZM147.526 57.4634V59.8049H145.184V57.4634H147.526ZM147.526 59.8049V62.1463H145.184V59.8049H147.526ZM145.184 59.8049V62.1463H142.843V59.8049H145.184ZM142.843 59.8049V62.1463H140.502V59.8049H142.843ZM140.502 59.8049V62.1463H138.16V59.8049H140.502ZM142.843 57.4634V59.8049H140.502V57.4634H142.843ZM145.184 57.4634V59.8049H142.843V57.4634H145.184ZM145.184 55.122V57.4634H142.843V55.122H145.184ZM142.843 55.122V57.4634H140.502V55.122H142.843ZM140.502 55.122V57.4634H138.16V55.122H140.502ZM140.502 57.4634V59.8049H138.16V57.4634H140.502ZM138.16 50.439V52.7805H135.819V50.439H138.16ZM138.16 48.0976V50.439H135.819V48.0976H138.16ZM138.16 45.7561V48.0976H135.819V45.7561H138.16ZM138.16 43.4146V45.7561H135.819V43.4146H138.16ZM138.16 41.0732V43.4146H135.819V41.0732H138.16ZM138.16 38.7317V41.0732H135.819V38.7317H138.16ZM138.16 36.3902V38.7317H135.819V36.3902H138.16ZM138.16 34.0488V36.3902H135.819V34.0488H138.16ZM140.502 36.3902V38.7317H138.16V36.3902H140.502ZM140.502 34.0488V36.3902H138.16V34.0488H140.502ZM142.843 34.0488V36.3902H140.502V34.0488H142.843ZM145.184 34.0488V36.3902H142.843V34.0488H145.184ZM145.184 36.3902V38.7317H142.843V36.3902H145.184ZM145.184 38.7317V41.0732H142.843V38.7317H145.184ZM147.526 38.7317V41.0732H145.184V38.7317H147.526ZM147.526 41.0732V43.4146H145.184V41.0732H147.526ZM147.526 43.4146V45.7561H145.184V43.4146H147.526ZM147.526 45.7561V48.0976H145.184V45.7561H147.526ZM147.526 48.0976V50.439H145.184V48.0976H147.526ZM147.526 50.439V52.7805H145.184V50.439H147.526ZM147.526 36.3902V38.7317H145.184V36.3902H147.526ZM147.526 34.0488V36.3902H145.184V34.0488H147.526ZM142.843 36.3902V38.7317H140.502V36.3902H142.843ZM142.843 38.7317V41.0732H140.502V38.7317H142.843ZM142.843 41.0732V43.4146H140.502V41.0732H142.843ZM142.843 43.4146V45.7561H140.502V43.4146H142.843ZM142.843 45.7561V48.0976H140.502V45.7561H142.843ZM142.843 48.0976V50.439H140.502V48.0976H142.843ZM140.502 48.0976V50.439H138.16V48.0976H140.502ZM140.502 50.439V52.7805H138.16V50.439H140.502ZM140.502 45.7561V48.0976H138.16V45.7561H140.502ZM140.502 43.4146V45.7561H138.16V43.4146H140.502ZM140.502 41.0732V43.4146H138.16V41.0732H140.502ZM140.502 38.7317V41.0732H138.16V38.7317H140.502ZM145.184 41.0732V43.4146H142.843V41.0732H145.184ZM145.184 43.4146V45.7561H142.843V43.4146H145.184ZM145.184 45.7561V48.0976H142.843V45.7561H145.184ZM145.184 48.0976V50.439H142.843V48.0976H145.184ZM145.184 50.439V52.7805H142.843V50.439H145.184ZM142.843 50.439V52.7805H140.502V50.439H142.843ZM121.77 76.1951V78.5366H119.428V76.1951H121.77ZM124.111 76.1951V78.5366H121.77V76.1951H124.111ZM126.453 78.5366V80.8781H124.111V78.5366H126.453ZM128.794 78.5366V80.8781H126.453V78.5366H128.794ZM131.136 78.5366V80.8781H128.794V78.5366H131.136ZM124.111 78.5366V80.8781H121.77V78.5366H124.111ZM121.77 78.5366V80.8781H119.428V78.5366H121.77ZM119.428 78.5366V80.8781H117.087V78.5366H119.428ZM119.428 80.8781V83.2195H117.087V80.8781H119.428ZM117.087 80.8781V83.2195H114.745V80.8781H117.087ZM117.087 83.2195V85.561H114.745V83.2195H117.087ZM114.745 83.2195V85.561H112.404V83.2195H114.745ZM114.745 85.561V87.9024H112.404V85.561H114.745ZM114.745 87.9024V90.2439H112.404V87.9024H114.745ZM114.745 90.2439V92.5854H112.404V90.2439H114.745ZM117.087 90.2439V92.5854H114.745V90.2439H117.087ZM119.428 90.2439V92.5854H117.087V90.2439H119.428ZM119.428 87.9024V90.2439H117.087V87.9024H119.428ZM119.428 85.561V87.9024H117.087V85.561H119.428ZM117.087 85.561V87.9024H114.745V85.561H117.087ZM117.087 87.9024V90.2439H114.745V87.9024H117.087ZM121.77 85.561V87.9024H119.428V85.561H121.77ZM121.77 87.9024V90.2439H119.428V87.9024H121.77ZM124.111 85.561V87.9024H121.77V85.561H124.111ZM124.111 83.2195V85.561H121.77V83.2195H124.111ZM126.453 83.2195V85.561H124.111V83.2195H126.453ZM126.453 80.8781V83.2195H124.111V80.8781H126.453ZM128.794 80.8781V83.2195H126.453V80.8781H128.794ZM124.111 80.8781V83.2195H121.77V80.8781H124.111ZM121.77 80.8781V83.2195H119.428V80.8781H121.77ZM121.77 83.2195V85.561H119.428V83.2195H121.77ZM119.428 83.2195V85.561H117.087V83.2195H119.428Z" fill="white"/>
<path d="M182.716 76.1951V78.5366H180.375V76.1951H182.716ZM182.716 73.8537V76.1951H180.375V73.8537H182.716ZM182.716 71.5122V73.8537H180.375V71.5122H182.716ZM182.716 69.1707V71.5122H180.375V69.1707H182.716ZM182.716 66.8293V69.1707H180.375V66.8293H182.716ZM182.716 64.4878V66.8293H180.375V64.4878H182.716ZM182.716 62.1463V64.4878H180.375V62.1463H182.716ZM182.716 59.8049V62.1463H180.375V59.8049H182.716ZM182.716 57.4634V59.8049H180.375V57.4634H182.716ZM182.716 55.122V57.4634H180.375V55.122H182.716ZM182.716 52.7805V55.122H180.375V52.7805H182.716ZM182.716 50.439V52.7805H180.375V50.439H182.716ZM182.716 48.0976V50.439H180.375V48.0976H182.716ZM182.716 45.7561V48.0976H180.375V45.7561H182.716ZM182.716 43.4146V45.7561H180.375V43.4146H182.716ZM185.058 43.4146V45.7561H182.716V43.4146H185.058ZM185.058 45.7561V48.0976H182.716V45.7561H185.058ZM185.058 48.0976V50.439H182.716V48.0976H185.058ZM185.058 50.439V52.7805H182.716V50.439H185.058ZM185.058 52.7805V55.122H182.716V52.7805H185.058ZM185.058 55.122V57.4634H182.716V55.122H185.058ZM185.058 57.4634V59.8049H182.716V57.4634H185.058ZM187.399 59.8049V62.1463H185.058V59.8049H187.399ZM187.399 62.1463V64.4878H185.058V62.1463H187.399ZM187.399 64.4878V66.8293H185.058V64.4878H187.399ZM187.399 66.8293V69.1707H185.058V66.8293H187.399ZM187.399 69.1707V71.5122H185.058V69.1707H187.399ZM187.399 71.5122V73.8537H185.058V71.5122H187.399ZM187.399 73.8537V76.1951H185.058V73.8537H187.399ZM187.399 76.1951V78.5366H185.058V76.1951H187.399ZM189.741 76.1951V78.5366H187.399V76.1951H189.741ZM192.082 76.1951V78.5366H189.741V76.1951H192.082ZM192.082 73.8537V76.1951H189.741V73.8537H192.082ZM192.082 71.5122V73.8537H189.741V71.5122H192.082ZM192.082 69.1707V71.5122H189.741V69.1707H192.082ZM192.082 66.8293V69.1707H189.741V66.8293H192.082ZM192.082 64.4878V66.8293H189.741V64.4878H192.082ZM192.082 62.1463V64.4878H189.741V62.1463H192.082ZM192.082 59.8049V62.1463H189.741V59.8049H192.082ZM189.741 59.8049V62.1463H187.399V59.8049H189.741ZM189.741 57.4634V59.8049H187.399V57.4634H189.741ZM189.741 62.1463V64.4878H187.399V62.1463H189.741ZM189.741 64.4878V66.8293H187.399V64.4878H189.741ZM189.741 66.8293V69.1707H187.399V66.8293H189.741ZM189.741 69.1707V71.5122H187.399V69.1707H189.741ZM189.741 71.5122V73.8537H187.399V71.5122H189.741ZM189.741 73.8537V76.1951H187.399V73.8537H189.741ZM185.058 76.1951V78.5366H182.716V76.1951H185.058ZM185.058 73.8537V76.1951H182.716V73.8537H185.058ZM185.058 71.5122V73.8537H182.716V71.5122H185.058ZM185.058 69.1707V71.5122H182.716V69.1707H185.058ZM185.058 66.8293V69.1707H182.716V66.8293H185.058ZM185.058 64.4878V66.8293H182.716V64.4878H185.058ZM185.058 62.1463V64.4878H182.716V62.1463H185.058ZM185.058 59.8049V62.1463H182.716V59.8049H185.058ZM182.716 20V22.3415H180.375V20H182.716ZM182.716 22.3415V24.6829H180.375V22.3415H182.716ZM182.716 24.6829V27.0244H180.375V24.6829H182.716ZM182.716 27.0244V29.3659H180.375V27.0244H182.716ZM182.716 29.3659V31.7073H180.375V29.3659H182.716ZM182.716 31.7073V34.0488H180.375V31.7073H182.716ZM182.716 34.0488V36.3902H180.375V34.0488H182.716ZM182.716 36.3902V38.7317H180.375V36.3902H182.716ZM182.716 38.7317V41.0732H180.375V38.7317H182.716ZM182.716 41.0732V43.4146H180.375V41.0732H182.716ZM189.741 20V22.3415H187.399V20H189.741ZM189.741 22.3415V24.6829H187.399V22.3415H189.741ZM189.741 24.6829V27.0244H187.399V24.6829H189.741ZM189.741 27.0244V29.3659H187.399V27.0244H189.741ZM189.741 29.3659V31.7073H187.399V29.3659H189.741ZM189.741 31.7073V34.0488H187.399V31.7073H189.741ZM189.741 36.3902V38.7317H187.399V36.3902H189.741ZM189.741 38.7317V41.0732H187.399V38.7317H189.741ZM189.741 41.0732V43.4146H187.399V41.0732H189.741ZM189.741 43.4146V45.7561H187.399V43.4146H189.741ZM189.741 45.7561V48.0976H187.399V45.7561H189.741ZM189.741 48.0976V50.439H187.399V48.0976H189.741ZM189.741 50.439V52.7805H187.399V50.439H189.741ZM192.082 52.7805V55.122H189.741V52.7805H192.082ZM192.082 55.122V57.4634H189.741V55.122H192.082ZM192.082 57.4634V59.8049H189.741V57.4634H192.082ZM192.082 50.439V52.7805H189.741V50.439H192.082ZM192.082 48.0976V50.439H189.741V48.0976H192.082ZM192.082 45.7561V48.0976H189.741V45.7561H192.082ZM192.082 43.4146V45.7561H189.741V43.4146H192.082ZM192.082 41.0732V43.4146H189.741V41.0732H192.082ZM192.082 38.7317V41.0732H189.741V38.7317H192.082ZM192.082 36.3902V38.7317H189.741V36.3902H192.082ZM192.082 34.0488V36.3902H189.741V34.0488H192.082ZM192.082 31.7073V34.0488H189.741V31.7073H192.082ZM192.082 29.3659V31.7073H189.741V29.3659H192.082ZM189.741 34.0488V36.3902H187.399V34.0488H189.741ZM192.082 27.0244V29.3659H189.741V27.0244H192.082ZM192.082 24.6829V27.0244H189.741V24.6829H192.082ZM192.082 22.3415V24.6829H189.741V22.3415H192.082ZM192.082 20V22.3415H189.741V20H192.082ZM187.399 20V22.3415H185.058V20H187.399ZM185.058 20V22.3415H182.716V20H185.058ZM185.058 22.3415V24.6829H182.716V22.3415H185.058ZM187.399 22.3415V24.6829H185.058V22.3415H187.399ZM187.399 24.6829V27.0244H185.058V24.6829H187.399ZM187.399 27.0244V29.3659H185.058V27.0244H187.399ZM187.399 29.3659V31.7073H185.058V29.3659H187.399ZM187.399 31.7073V34.0488H185.058V31.7073H187.399ZM187.399 34.0488V36.3902H185.058V34.0488H187.399ZM187.399 36.3902V38.7317H185.058V36.3902H187.399ZM185.058 38.7317V41.0732H182.716V38.7317H185.058ZM185.058 41.0732V43.4146H182.716V41.0732H185.058ZM185.058 36.3902V38.7317H182.716V36.3902H185.058ZM185.058 34.0488V36.3902H182.716V34.0488H185.058ZM185.058 31.7073V34.0488H182.716V31.7073H185.058ZM185.058 29.3659V31.7073H182.716V29.3659H185.058ZM185.058 27.0244V29.3659H182.716V27.0244H185.058ZM185.058 24.6829V27.0244H182.716V24.6829H185.058ZM187.399 38.7317V41.0732H185.058V38.7317H187.399ZM187.399 41.0732V43.4146H185.058V41.0732H187.399ZM187.399 43.4146V45.7561H185.058V43.4146H187.399ZM187.399 45.7561V48.0976H185.058V45.7561H187.399ZM187.399 48.0976V50.439H185.058V48.0976H187.399ZM187.399 50.439V52.7805H185.058V50.439H187.399ZM187.399 52.7805V55.122H185.058V52.7805H187.399ZM187.399 55.122V57.4634H185.058V55.122H187.399ZM187.399 57.4634V59.8049H185.058V57.4634H187.399ZM189.741 55.122V57.4634H187.399V55.122H189.741ZM189.741 52.7805V55.122H187.399V52.7805H189.741Z" fill="white"/>
<path d="M387.39 66.8293V69.1707H385.049V66.8293H387.39ZM389.732 66.8293V69.1707H387.39V66.8293H389.732ZM392.073 66.8293V69.1707H389.732V66.8293H392.073ZM394.415 66.8293V69.1707H392.073V66.8293H394.415ZM394.415 69.1707V71.5122H392.073V69.1707H394.415ZM394.415 71.5122V73.8537H392.073V71.5122H394.415ZM394.415 73.8537V76.1951H392.073V73.8537H394.415ZM394.415 76.1951V78.5366H392.073V76.1951H394.415ZM392.073 76.1951V78.5366H389.732V76.1951H392.073ZM389.732 76.1951V78.5366H387.39V76.1951H389.732ZM387.39 76.1951V78.5366H385.049V76.1951H387.39ZM385.049 76.1951V78.5366H382.707V76.1951H385.049ZM385.049 73.8537V76.1951H382.707V73.8537H385.049ZM385.049 71.5122V73.8537H382.707V71.5122H385.049ZM385.049 69.1707V71.5122H382.707V69.1707H385.049ZM387.39 69.1707V71.5122H385.049V69.1707H387.39ZM385.049 66.8293V69.1707H382.707V66.8293H385.049ZM387.39 71.5122V73.8537H385.049V71.5122H387.39ZM389.732 73.8537V76.1951H387.39V73.8537H389.732ZM392.073 73.8537V76.1951H389.732V73.8537H392.073ZM392.073 71.5122V73.8537H389.732V71.5122H392.073ZM392.073 69.1707V71.5122H389.732V69.1707H392.073ZM389.732 69.1707V71.5122H387.39V69.1707H389.732ZM389.732 71.5122V73.8537H387.39V71.5122H389.732ZM387.39 73.8537V76.1951H385.049V73.8537H387.39ZM389.732 57.4634V59.8049H387.39V57.4634H389.732ZM389.732 55.122V57.4634H387.39V55.122H389.732ZM387.39 55.122V57.4634H385.049V55.122H387.39ZM387.39 52.7805V55.122H385.049V52.7805H387.39ZM385.049 52.7805V55.122H382.707V52.7805H385.049ZM385.049 50.439V52.7805H382.707V50.439H385.049ZM385.049 48.0976V50.439H382.707V48.0976H385.049ZM387.39 48.0976V50.439H385.049V48.0976H387.39ZM389.732 48.0976V50.439H387.39V48.0976H389.732ZM392.073 48.0976V50.439H389.732V48.0976H392.073ZM394.415 48.0976V50.439H392.073V48.0976H394.415ZM396.756 48.0976V50.439H394.415V48.0976H396.756ZM396.756 50.439V52.7805H394.415V50.439H396.756ZM394.415 50.439V52.7805H392.073V50.439H394.415ZM394.415 52.7805V55.122H392.073V52.7805H394.415ZM392.073 52.7805V55.122H389.732V52.7805H392.073ZM392.073 55.122V57.4634H389.732V55.122H392.073ZM392.073 50.439V52.7805H389.732V50.439H392.073ZM389.732 50.439V52.7805H387.39V50.439H389.732ZM387.39 50.439V52.7805H385.049V50.439H387.39ZM389.732 52.7805V55.122H387.39V52.7805H389.732ZM399.098 48.0976V50.439H396.756V48.0976H399.098ZM399.098 45.7561V48.0976H396.756V45.7561H399.098ZM401.439 43.4146V45.7561H399.098V43.4146H401.439ZM403.78 43.4146V45.7561H401.439V43.4146H403.78ZM403.78 41.0732V43.4146H401.439V41.0732H403.78ZM401.439 45.7561V48.0976H399.098V45.7561H401.439ZM406.122 41.0732V43.4146H403.78V41.0732H406.122ZM401.439 41.0732V43.4146H399.098V41.0732H401.439ZM399.098 41.0732V43.4146H396.756V41.0732H399.098ZM399.098 38.7317V41.0732H396.756V38.7317H399.098ZM396.756 38.7317V41.0732H394.415V38.7317H396.756ZM394.415 38.7317V41.0732H392.073V38.7317H394.415ZM394.415 41.0732V43.4146H392.073V41.0732H394.415ZM394.415 43.4146V45.7561H392.073V43.4146H394.415ZM392.073 43.4146V45.7561H389.732V43.4146H392.073ZM392.073 41.0732V43.4146H389.732V41.0732H392.073ZM389.732 45.7561V48.0976H387.39V45.7561H389.732ZM389.732 43.4146V45.7561H387.39V43.4146H389.732ZM387.39 45.7561V48.0976H385.049V45.7561H387.39ZM392.073 45.7561V48.0976H389.732V45.7561H392.073ZM394.415 45.7561V48.0976H392.073V45.7561H394.415ZM396.756 45.7561V48.0976H394.415V45.7561H396.756ZM396.756 43.4146V45.7561H394.415V43.4146H396.756ZM396.756 41.0732V43.4146H394.415V41.0732H396.756ZM399.098 43.4146V45.7561H396.756V43.4146H399.098ZM399.098 36.3902V38.7317H396.756V36.3902H399.098ZM396.756 36.3902V38.7317H394.415V36.3902H396.756ZM396.756 34.0488V36.3902H394.415V34.0488H396.756ZM396.756 31.7073V34.0488H394.415V31.7073H396.756ZM394.415 31.7073V34.0488H392.073V31.7073H394.415ZM394.415 29.3659V31.7073H392.073V29.3659H394.415ZM392.073 29.3659V31.7073H389.732V29.3659H392.073ZM389.732 29.3659V31.7073H387.39V29.3659H389.732ZM387.39 29.3659V31.7073H385.049V29.3659H387.39ZM385.049 29.3659V31.7073H382.707V29.3659H385.049ZM385.049 31.7073V34.0488H382.707V31.7073H385.049ZM382.707 31.7073V34.0488H380.366V31.7073H382.707ZM382.707 34.0488V36.3902H380.366V34.0488H382.707ZM380.366 34.0488V36.3902H378.024V34.0488H380.366ZM378.024 34.0488V36.3902H375.683V34.0488H378.024ZM375.683 34.0488V36.3902H373.341V34.0488H375.683ZM373.341 34.0488V36.3902H371V34.0488H373.341ZM373.341 31.7073V34.0488H371V31.7073H373.341ZM373.341 29.3659V31.7073H371V29.3659H373.341ZM375.683 29.3659V31.7073H373.341V29.3659H375.683ZM375.683 27.0244V29.3659H373.341V27.0244H375.683ZM375.683 24.6829V27.0244H373.341V24.6829H375.683ZM378.024 24.6829V27.0244H375.683V24.6829H378.024ZM378.024 22.3415V24.6829H375.683V22.3415H378.024ZM380.366 22.3415V24.6829H378.024V22.3415H380.366ZM382.707 22.3415V24.6829H380.366V22.3415H382.707ZM382.707 20V22.3415H380.366V20H382.707ZM385.049 20V22.3415H382.707V20H385.049ZM387.39 20V22.3415H385.049V20H387.39ZM389.732 20V22.3415H387.39V20H389.732ZM392.073 20V22.3415H389.732V20H392.073ZM394.415 20V22.3415H392.073V20H394.415ZM396.756 20V22.3415H394.415V20H396.756ZM396.756 22.3415V24.6829H394.415V22.3415H396.756ZM399.098 22.3415V24.6829H396.756V22.3415H399.098ZM401.439 22.3415V24.6829H399.098V22.3415H401.439ZM401.439 24.6829V27.0244H399.098V24.6829H401.439ZM403.78 24.6829V27.0244H401.439V24.6829H403.78ZM403.78 27.0244V29.3659H401.439V27.0244H403.78ZM403.78 29.3659V31.7073H401.439V29.3659H403.78ZM406.122 29.3659V31.7073H403.78V29.3659H406.122ZM406.122 31.7073V34.0488H403.78V31.7073H406.122ZM406.122 34.0488V36.3902H403.78V34.0488H406.122ZM406.122 36.3902V38.7317H403.78V36.3902H406.122ZM406.122 38.7317V41.0732H403.78V38.7317H406.122ZM403.78 38.7317V41.0732H401.439V38.7317H403.78ZM401.439 38.7317V41.0732H399.098V38.7317H401.439ZM401.439 36.3902V38.7317H399.098V36.3902H401.439ZM403.78 36.3902V38.7317H401.439V36.3902H403.78ZM403.78 34.0488V36.3902H401.439V34.0488H403.78ZM403.78 31.7073V34.0488H401.439V31.7073H403.78ZM401.439 31.7073V34.0488H399.098V31.7073H401.439ZM401.439 34.0488V36.3902H399.098V34.0488H401.439ZM399.098 34.0488V36.3902H396.756V34.0488H399.098ZM399.098 31.7073V34.0488H396.756V31.7073H399.098ZM399.098 29.3659V31.7073H396.756V29.3659H399.098ZM401.439 29.3659V31.7073H399.098V29.3659H401.439ZM401.439 27.0244V29.3659H399.098V27.0244H401.439ZM399.098 27.0244V29.3659H396.756V27.0244H399.098ZM399.098 24.6829V27.0244H396.756V24.6829H399.098ZM396.756 24.6829V27.0244H394.415V24.6829H396.756ZM396.756 27.0244V29.3659H394.415V27.0244H396.756ZM396.756 29.3659V31.7073H394.415V29.3659H396.756ZM394.415 24.6829V27.0244H392.073V24.6829H394.415ZM394.415 22.3415V24.6829H392.073V22.3415H394.415ZM392.073 22.3415V24.6829H389.732V22.3415H392.073ZM389.732 22.3415V24.6829H387.39V22.3415H389.732ZM387.39 22.3415V24.6829H385.049V22.3415H387.39ZM385.049 22.3415V24.6829H382.707V22.3415H385.049ZM385.049 24.6829V27.0244H382.707V24.6829H385.049ZM382.707 24.6829V27.0244H380.366V24.6829H382.707ZM380.366 24.6829V27.0244H378.024V24.6829H380.366ZM378.024 27.0244V29.3659H375.683V27.0244H378.024ZM378.024 29.3659V31.7073H375.683V29.3659H378.024ZM375.683 31.7073V34.0488H373.341V31.7073H375.683ZM378.024 31.7073V34.0488H375.683V31.7073H378.024ZM380.366 31.7073V34.0488H378.024V31.7073H380.366ZM380.366 29.3659V31.7073H378.024V29.3659H380.366ZM380.366 27.0244V29.3659H378.024V27.0244H380.366ZM382.707 27.0244V29.3659H380.366V27.0244H382.707ZM385.049 27.0244V29.3659H382.707V27.0244H385.049ZM382.707 29.3659V31.7073H380.366V29.3659H382.707ZM387.39 27.0244V29.3659H385.049V27.0244H387.39ZM389.732 27.0244V29.3659H387.39V27.0244H389.732ZM392.073 27.0244V29.3659H389.732V27.0244H392.073ZM394.415 27.0244V29.3659H392.073V27.0244H394.415ZM392.073 24.6829V27.0244H389.732V24.6829H392.073ZM389.732 24.6829V27.0244H387.39V24.6829H389.732ZM387.39 24.6829V27.0244H385.049V24.6829H387.39Z" fill="white"/>
<path fill-rule="evenodd" clip-rule="evenodd" d="M207.317 107.537V110.537H366.317V107.537H207.317Z" fill="#FF9797"/>
</svg>
