<svg width="426" height="122" viewBox="0 0 426 122" fill="none" xmlns="http://www.w3.org/2000/svg">
<path d="M7.19712 88.601V91H4.79808V88.601H7.19712ZM7.19712 86.2019V88.601H4.79808V86.2019H7.19712ZM7.19712 83.8029V86.2019H4.79808V83.8029H7.19712ZM7.19712 81.4038V83.8029H4.79808V81.4038H7.19712ZM7.19712 79.0048V81.4038H4.79808V79.0048H7.19712ZM7.19712 76.6058V79.0048H4.79808V76.6058H7.19712ZM7.19712 74.2067V76.6058H4.79808V74.2067H7.19712ZM7.19712 71.8077V74.2067H4.79808V71.8077H7.19712ZM7.19712 69.4086V71.8077H4.79808V69.4086H7.19712ZM7.19712 67.0096V69.4086H4.79808V67.0096H7.19712ZM7.19712 64.6106V67.0096H4.79808V64.6106H7.19712ZM7.19712 62.2115V64.6106H4.79808V62.2115H7.19712ZM7.19712 59.8125V62.2115H4.79808V59.8125H7.19712ZM7.19712 57.4134V59.8125H4.79808V57.4134H7.19712ZM7.19712 55.0144V57.4134H4.79808V55.0144H7.19712ZM9.59616 55.0144V57.4134H7.19712V55.0144H9.59616ZM9.59616 57.4134V59.8125H7.19712V57.4134H9.59616ZM9.59616 59.8125V62.2115H7.19712V59.8125H9.59616ZM9.59616 62.2115V64.6106H7.19712V62.2115H9.59616ZM9.59616 64.6106V67.0096H7.19712V64.6106H9.59616ZM9.59616 67.0096V69.4086H7.19712V67.0096H9.59616ZM9.59616 69.4086V71.8077H7.19712V69.4086H9.59616ZM11.9952 71.8077V74.2067H9.59616V71.8077H11.9952ZM11.9952 74.2067V76.6058H9.59616V74.2067H11.9952ZM11.9952 76.6058V79.0048H9.59616V76.6058H11.9952ZM11.9952 79.0048V81.4038H9.59616V79.0048H11.9952ZM11.9952 81.4038V83.8029H9.59616V81.4038H11.9952ZM11.9952 83.8029V86.2019H9.59616V83.8029H11.9952ZM11.9952 86.2019V88.601H9.59616V86.2019H11.9952ZM11.9952 88.601V91H9.59616V88.601H11.9952ZM14.3942 88.601V91H11.9952V88.601H14.3942ZM16.7933 88.601V91H14.3942V88.601H16.7933ZM16.7933 86.2019V88.601H14.3942V86.2019H16.7933ZM16.7933 83.8029V86.2019H14.3942V83.8029H16.7933ZM16.7933 81.4038V83.8029H14.3942V81.4038H16.7933ZM16.7933 79.0048V81.4038H14.3942V79.0048H16.7933ZM16.7933 76.6058V79.0048H14.3942V76.6058H16.7933ZM16.7933 74.2067V76.6058H14.3942V74.2067H16.7933ZM16.7933 71.8077V74.2067H14.3942V71.8077H16.7933ZM14.3942 71.8077V74.2067H11.9952V71.8077H14.3942ZM14.3942 69.4086V71.8077H11.9952V69.4086H14.3942ZM14.3942 74.2067V76.6058H11.9952V74.2067H14.3942ZM14.3942 76.6058V79.0048H11.9952V76.6058H14.3942ZM14.3942 79.0048V81.4038H11.9952V79.0048H14.3942ZM14.3942 81.4038V83.8029H11.9952V81.4038H14.3942ZM14.3942 83.8029V86.2019H11.9952V83.8029H14.3942ZM14.3942 86.2019V88.601H11.9952V86.2019H14.3942ZM9.59616 88.601V91H7.19712V88.601H9.59616ZM9.59616 86.2019V88.601H7.19712V86.2019H9.59616ZM9.59616 83.8029V86.2019H7.19712V83.8029H9.59616ZM9.59616 81.4038V83.8029H7.19712V81.4038H9.59616ZM9.59616 79.0048V81.4038H7.19712V79.0048H9.59616ZM9.59616 76.6058V79.0048H7.19712V76.6058H9.59616ZM9.59616 74.2067V76.6058H7.19712V74.2067H9.59616ZM9.59616 71.8077V74.2067H7.19712V71.8077H9.59616ZM7.19712 31.024V33.423H4.79808V31.024H7.19712ZM7.19712 33.423V35.8221H4.79808V33.423H7.19712ZM7.19712 35.8221V38.2211H4.79808V35.8221H7.19712ZM7.19712 38.2211V40.6202H4.79808V38.2211H7.19712ZM7.19712 40.6202V43.0192H4.79808V40.6202H7.19712ZM7.19712 43.0192V45.4182H4.79808V43.0192H7.19712ZM7.19712 45.4182V47.8173H4.79808V45.4182H7.19712ZM7.19712 47.8173V50.2163H4.79808V47.8173H7.19712ZM7.19712 50.2163V52.6154H4.79808V50.2163H7.19712ZM7.19712 52.6154V55.0144H4.79808V52.6154H7.19712ZM14.3942 31.024V33.423H11.9952V31.024H14.3942ZM14.3942 33.423V35.8221H11.9952V33.423H14.3942ZM14.3942 35.8221V38.2211H11.9952V35.8221H14.3942ZM14.3942 38.2211V40.6202H11.9952V38.2211H14.3942ZM14.3942 40.6202V43.0192H11.9952V40.6202H14.3942ZM14.3942 43.0192V45.4182H11.9952V43.0192H14.3942ZM14.3942 47.8173V50.2163H11.9952V47.8173H14.3942ZM14.3942 50.2163V52.6154H11.9952V50.2163H14.3942ZM14.3942 52.6154V55.0144H11.9952V52.6154H14.3942ZM14.3942 55.0144V57.4134H11.9952V55.0144H14.3942ZM14.3942 57.4134V59.8125H11.9952V57.4134H14.3942ZM14.3942 59.8125V62.2115H11.9952V59.8125H14.3942ZM14.3942 62.2115V64.6106H11.9952V62.2115H14.3942ZM16.7933 64.6106V67.0096H14.3942V64.6106H16.7933ZM16.7933 67.0096V69.4086H14.3942V67.0096H16.7933ZM16.7933 69.4086V71.8077H14.3942V69.4086H16.7933ZM16.7933 62.2115V64.6106H14.3942V62.2115H16.7933ZM16.7933 59.8125V62.2115H14.3942V59.8125H16.7933ZM16.7933 57.4134V59.8125H14.3942V57.4134H16.7933ZM16.7933 55.0144V57.4134H14.3942V55.0144H16.7933ZM16.7933 52.6154V55.0144H14.3942V52.6154H16.7933ZM16.7933 50.2163V52.6154H14.3942V50.2163H16.7933ZM16.7933 47.8173V50.2163H14.3942V47.8173H16.7933ZM16.7933 45.4182V47.8173H14.3942V45.4182H16.7933ZM16.7933 43.0192V45.4182H14.3942V43.0192H16.7933ZM16.7933 40.6202V43.0192H14.3942V40.6202H16.7933ZM14.3942 45.4182V47.8173H11.9952V45.4182H14.3942ZM16.7933 38.2211V40.6202H14.3942V38.2211H16.7933ZM16.7933 35.8221V38.2211H14.3942V35.8221H16.7933ZM16.7933 33.423V35.8221H14.3942V33.423H16.7933ZM16.7933 31.024V33.423H14.3942V31.024H16.7933ZM11.9952 31.024V33.423H9.59616V31.024H11.9952ZM9.59616 31.024V33.423H7.19712V31.024H9.59616ZM9.59616 33.423V35.8221H7.19712V33.423H9.59616ZM11.9952 33.423V35.8221H9.59616V33.423H11.9952ZM11.9952 35.8221V38.2211H9.59616V35.8221H11.9952ZM11.9952 38.2211V40.6202H9.59616V38.2211H11.9952ZM11.9952 40.6202V43.0192H9.59616V40.6202H11.9952ZM11.9952 43.0192V45.4182H9.59616V43.0192H11.9952ZM11.9952 45.4182V47.8173H9.59616V45.4182H11.9952ZM11.9952 47.8173V50.2163H9.59616V47.8173H11.9952ZM9.59616 50.2163V52.6154H7.19712V50.2163H9.59616ZM9.59616 52.6154V55.0144H7.19712V52.6154H9.59616ZM9.59616 47.8173V50.2163H7.19712V47.8173H9.59616ZM9.59616 45.4182V47.8173H7.19712V45.4182H9.59616ZM9.59616 43.0192V45.4182H7.19712V43.0192H9.59616ZM9.59616 40.6202V43.0192H7.19712V40.6202H9.59616ZM9.59616 38.2211V40.6202H7.19712V38.2211H9.59616ZM9.59616 35.8221V38.2211H7.19712V35.8221H9.59616ZM11.9952 50.2163V52.6154H9.59616V50.2163H11.9952ZM11.9952 52.6154V55.0144H9.59616V52.6154H11.9952ZM11.9952 55.0144V57.4134H9.59616V55.0144H11.9952ZM11.9952 57.4134V59.8125H9.59616V57.4134H11.9952ZM11.9952 59.8125V62.2115H9.59616V59.8125H11.9952ZM11.9952 62.2115V64.6106H9.59616V62.2115H11.9952ZM11.9952 64.6106V67.0096H9.59616V64.6106H11.9952ZM11.9952 67.0096V69.4086H9.59616V67.0096H11.9952ZM11.9952 69.4086V71.8077H9.59616V69.4086H11.9952ZM14.3942 67.0096V69.4086H11.9952V67.0096H14.3942ZM14.3942 64.6106V67.0096H11.9952V64.6106H14.3942ZM52.7789 31.024V33.423H50.3798V31.024H52.7789ZM52.7789 33.423V35.8221H50.3798V33.423H52.7789ZM52.7789 35.8221V38.2211H50.3798V35.8221H52.7789ZM52.7789 40.6202V43.0192H50.3798V40.6202H52.7789ZM52.7789 43.0192V45.4182H50.3798V43.0192H52.7789ZM52.7789 45.4182V47.8173H50.3798V45.4182H52.7789ZM52.7789 47.8173V50.2163H50.3798V47.8173H52.7789ZM52.7789 50.2163V52.6154H50.3798V50.2163H52.7789ZM52.7789 52.6154V55.0144H50.3798V52.6154H52.7789ZM52.7789 55.0144V57.4134H50.3798V55.0144H52.7789ZM55.1779 57.4134V59.8125H52.7789V57.4134H55.1779ZM55.1779 59.8125V62.2115H52.7789V59.8125H55.1779ZM55.1779 62.2115V64.6106H52.7789V62.2115H55.1779ZM55.1779 64.6106V67.0096H52.7789V64.6106H55.1779ZM55.1779 67.0096V69.4086H52.7789V67.0096H55.1779ZM55.1779 69.4086V71.8077H52.7789V69.4086H55.1779ZM57.577 69.4086V71.8077H55.1779V69.4086H57.577ZM57.577 71.8077V74.2067H55.1779V71.8077H57.577ZM57.577 74.2067V76.6058H55.1779V74.2067H57.577ZM57.577 76.6058V79.0048H55.1779V76.6058H57.577ZM57.577 79.0048V81.4038H55.1779V79.0048H57.577ZM57.577 81.4038V83.8029H55.1779V81.4038H57.577ZM57.577 83.8029V86.2019H55.1779V83.8029H57.577ZM57.577 86.2019V88.601H55.1779V86.2019H57.577ZM57.577 88.601V91H55.1779V88.601H57.577ZM55.1779 88.601V91H52.7789V88.601H55.1779ZM55.1779 86.2019V88.601H52.7789V86.2019H55.1779ZM55.1779 83.8029V86.2019H52.7789V83.8029H55.1779ZM55.1779 81.4038V83.8029H52.7789V81.4038H55.1779ZM55.1779 79.0048V81.4038H52.7789V79.0048H55.1779ZM55.1779 76.6058V79.0048H52.7789V76.6058H55.1779ZM55.1779 74.2067V76.6058H52.7789V74.2067H55.1779ZM52.7789 74.2067V76.6058H50.3798V74.2067H52.7789ZM52.7789 71.8077V74.2067H50.3798V71.8077H52.7789ZM55.1779 71.8077V74.2067H52.7789V71.8077H55.1779ZM52.7789 57.4134V59.8125H50.3798V57.4134H52.7789ZM52.7789 59.8125V62.2115H50.3798V59.8125H52.7789ZM52.7789 62.2115V64.6106H50.3798V62.2115H52.7789ZM52.7789 64.6106V67.0096H50.3798V64.6106H52.7789ZM52.7789 67.0096V69.4086H50.3798V67.0096H52.7789ZM52.7789 69.4086V71.8077H50.3798V69.4086H52.7789ZM52.7789 38.2211V40.6202H50.3798V38.2211H52.7789ZM52.7789 76.6058V79.0048H50.3798V76.6058H52.7789ZM52.7789 79.0048V81.4038H50.3798V79.0048H52.7789ZM52.7789 81.4038V83.8029H50.3798V81.4038H52.7789ZM52.7789 83.8029V86.2019H50.3798V83.8029H52.7789ZM52.7789 86.2019V88.601H50.3798V86.2019H52.7789ZM52.7789 88.601V91H50.3798V88.601H52.7789ZM59.976 88.601V91H57.577V88.601H59.976ZM62.375 88.601V91H59.976V88.601H62.375ZM62.375 86.2019V88.601H59.976V86.2019H62.375ZM62.375 83.8029V86.2019H59.976V83.8029H62.375ZM62.375 81.4038V83.8029H59.976V81.4038H62.375ZM62.375 79.0048V81.4038H59.976V79.0048H62.375ZM62.375 76.6058V79.0048H59.976V76.6058H62.375ZM62.375 74.2067V76.6058H59.976V74.2067H62.375ZM62.375 71.8077V74.2067H59.976V71.8077H62.375ZM62.375 69.4086V71.8077H59.976V69.4086H62.375ZM62.375 67.0096V69.4086H59.976V67.0096H62.375ZM62.375 64.6106V67.0096H59.976V64.6106H62.375ZM62.375 62.2115V64.6106H59.976V62.2115H62.375ZM62.375 59.8125V62.2115H59.976V59.8125H62.375ZM62.375 57.4134V59.8125H59.976V57.4134H62.375ZM62.375 55.0144V57.4134H59.976V55.0144H62.375ZM62.375 52.6154V55.0144H59.976V52.6154H62.375ZM62.375 50.2163V52.6154H59.976V50.2163H62.375ZM62.375 47.8173V50.2163H59.976V47.8173H62.375ZM62.375 45.4182V47.8173H59.976V45.4182H62.375ZM55.1779 31.024V33.423H52.7789V31.024H55.1779ZM57.577 31.024V33.423H55.1779V31.024H57.577ZM59.976 31.024V33.423H57.577V31.024H59.976ZM62.375 31.024V33.423H59.976V31.024H62.375ZM62.375 33.423V35.8221H59.976V33.423H62.375ZM62.375 35.8221V38.2211H59.976V35.8221H62.375ZM62.375 38.2211V40.6202H59.976V38.2211H62.375ZM62.375 40.6202V43.0192H59.976V40.6202H62.375ZM62.375 43.0192V45.4182H59.976V43.0192H62.375ZM55.1779 33.423V35.8221H52.7789V33.423H55.1779ZM57.577 33.423V35.8221H55.1779V33.423H57.577ZM59.976 33.423V35.8221H57.577V33.423H59.976ZM59.976 35.8221V38.2211H57.577V35.8221H59.976ZM59.976 38.2211V40.6202H57.577V38.2211H59.976ZM59.976 40.6202V43.0192H57.577V40.6202H59.976ZM59.976 43.0192V45.4182H57.577V43.0192H59.976ZM57.577 43.0192V45.4182H55.1779V43.0192H57.577ZM57.577 40.6202V43.0192H55.1779V40.6202H57.577ZM57.577 38.2211V40.6202H55.1779V38.2211H57.577ZM57.577 35.8221V38.2211H55.1779V35.8221H57.577ZM55.1779 35.8221V38.2211H52.7789V35.8221H55.1779ZM55.1779 38.2211V40.6202H52.7789V38.2211H55.1779ZM55.1779 40.6202V43.0192H52.7789V40.6202H55.1779ZM55.1779 43.0192V45.4182H52.7789V43.0192H55.1779ZM55.1779 45.4182V47.8173H52.7789V45.4182H55.1779ZM55.1779 47.8173V50.2163H52.7789V47.8173H55.1779ZM55.1779 50.2163V52.6154H52.7789V50.2163H55.1779ZM55.1779 52.6154V55.0144H52.7789V52.6154H55.1779ZM57.577 52.6154V55.0144H55.1779V52.6154H57.577ZM57.577 50.2163V52.6154H55.1779V50.2163H57.577ZM57.577 47.8173V50.2163H55.1779V47.8173H57.577ZM57.577 45.4182V47.8173H55.1779V45.4182H57.577ZM59.976 45.4182V47.8173H57.577V45.4182H59.976ZM59.976 47.8173V50.2163H57.577V47.8173H59.976ZM59.976 50.2163V52.6154H57.577V50.2163H59.976ZM59.976 52.6154V55.0144H57.577V52.6154H59.976ZM59.976 55.0144V57.4134H57.577V55.0144H59.976ZM59.976 57.4134V59.8125H57.577V57.4134H59.976ZM59.976 59.8125V62.2115H57.577V59.8125H59.976ZM59.976 62.2115V64.6106H57.577V62.2115H59.976ZM59.976 64.6106V67.0096H57.577V64.6106H59.976ZM59.976 67.0096V69.4086H57.577V67.0096H59.976ZM57.577 67.0096V69.4086H55.1779V67.0096H57.577ZM57.577 64.6106V67.0096H55.1779V64.6106H57.577ZM57.577 62.2115V64.6106H55.1779V62.2115H57.577ZM57.577 59.8125V62.2115H55.1779V59.8125H57.577ZM57.577 57.4134V59.8125H55.1779V57.4134H57.577ZM55.1779 55.0144V57.4134H52.7789V55.0144H55.1779ZM57.577 55.0144V57.4134H55.1779V55.0144H57.577ZM59.976 69.4086V71.8077H57.577V69.4086H59.976ZM59.976 71.8077V74.2067H57.577V71.8077H59.976ZM59.976 74.2067V76.6058H57.577V74.2067H59.976ZM59.976 76.6058V79.0048H57.577V76.6058H59.976ZM59.976 79.0048V81.4038H57.577V79.0048H59.976ZM59.976 81.4038V83.8029H57.577V81.4038H59.976ZM59.976 83.8029V86.2019H57.577V83.8029H59.976ZM59.976 86.2019V88.601H57.577V86.2019H59.976ZM33.5866 59.8125V62.2115H31.1875V59.8125H33.5866ZM33.5866 57.4134V59.8125H31.1875V57.4134H33.5866ZM33.5866 55.0144V57.4134H31.1875V55.0144H33.5866ZM33.5866 52.6154V55.0144H31.1875V52.6154H33.5866ZM33.5866 50.2163V52.6154H31.1875V50.2163H33.5866ZM33.5866 47.8173V50.2163H31.1875V47.8173H33.5866ZM33.5866 62.2115V64.6106H31.1875V62.2115H33.5866ZM38.3846 45.4182V47.8173H35.9856V45.4182H38.3846ZM40.7837 43.0192V45.4182H38.3846V43.0192H40.7837ZM43.1827 40.6202V43.0192H40.7837V40.6202H43.1827ZM45.5818 38.2211V40.6202H43.1827V38.2211H45.5818ZM31.1875 45.4182V47.8173H28.7885V45.4182H31.1875ZM28.7885 43.0192V45.4182H26.3894V43.0192H28.7885ZM26.3894 40.6202V43.0192H23.9904V40.6202H26.3894ZM23.9904 38.2211V40.6202H21.5914V38.2211H23.9904ZM38.3846 59.8125V62.2115H35.9856V59.8125H38.3846ZM40.7837 57.4134V59.8125H38.3846V57.4134H40.7837ZM43.1827 55.0144V57.4134H40.7837V55.0144H43.1827ZM45.5818 52.6154V55.0144H43.1827V52.6154H45.5818ZM31.1875 59.8125V62.2115H28.7885V59.8125H31.1875ZM28.7885 57.4134V59.8125H26.3894V57.4134H28.7885ZM26.3894 55.0144V57.4134H23.9904V55.0144H26.3894ZM23.9904 52.6154V55.0144H21.5914V52.6154H23.9904ZM19.1923 33.423V35.8221H16.7933V33.423H19.1923ZM21.5914 35.8221V38.2211H19.1923V35.8221H21.5914ZM47.9808 35.8221V38.2211H45.5818V35.8221H47.9808ZM50.3798 33.423V35.8221H47.9808V33.423H50.3798ZM21.5914 43.0192V45.4182H19.1923V43.0192H21.5914ZM21.5914 50.2163V52.6154H19.1923V50.2163H21.5914ZM21.5914 47.8173V50.2163H19.1923V47.8173H21.5914ZM19.1923 47.8173V50.2163H16.7933V47.8173H19.1923ZM47.9808 50.2163V52.6154H45.5818V50.2163H47.9808ZM50.3798 47.8173V50.2163H47.9808V47.8173H50.3798ZM50.3798 45.4182V47.8173H47.9808V45.4182H50.3798ZM50.3798 43.0192V45.4182H47.9808V43.0192H50.3798ZM50.3798 40.6202V43.0192H47.9808V40.6202H50.3798ZM50.3798 38.2211V40.6202H47.9808V38.2211H50.3798ZM50.3798 35.8221V38.2211H47.9808V35.8221H50.3798ZM47.9808 38.2211V40.6202H45.5818V38.2211H47.9808ZM47.9808 40.6202V43.0192H45.5818V40.6202H47.9808ZM47.9808 43.0192V45.4182H45.5818V43.0192H47.9808ZM47.9808 45.4182V47.8173H45.5818V45.4182H47.9808ZM47.9808 47.8173V50.2163H45.5818V47.8173H47.9808ZM45.5818 40.6202V43.0192H43.1827V40.6202H45.5818ZM45.5818 43.0192V45.4182H43.1827V43.0192H45.5818ZM45.5818 45.4182V47.8173H43.1827V45.4182H45.5818ZM45.5818 47.8173V50.2163H43.1827V47.8173H45.5818ZM45.5818 50.2163V52.6154H43.1827V50.2163H45.5818ZM43.1827 43.0192V45.4182H40.7837V43.0192H43.1827ZM43.1827 45.4182V47.8173H40.7837V45.4182H43.1827ZM43.1827 47.8173V50.2163H40.7837V47.8173H43.1827ZM43.1827 50.2163V52.6154H40.7837V50.2163H43.1827ZM43.1827 52.6154V55.0144H40.7837V52.6154H43.1827ZM40.7837 45.4182V47.8173H38.3846V45.4182H40.7837ZM40.7837 47.8173V50.2163H38.3846V47.8173H40.7837ZM40.7837 50.2163V52.6154H38.3846V50.2163H40.7837ZM40.7837 52.6154V55.0144H38.3846V52.6154H40.7837ZM40.7837 55.0144V57.4134H38.3846V55.0144H40.7837ZM38.3846 47.8173V50.2163H35.9856V47.8173H38.3846ZM38.3846 50.2163V52.6154H35.9856V50.2163H38.3846ZM38.3846 52.6154V55.0144H35.9856V52.6154H38.3846ZM38.3846 55.0144V57.4134H35.9856V55.0144H38.3846ZM38.3846 57.4134V59.8125H35.9856V57.4134H38.3846ZM31.1875 57.4134V59.8125H28.7885V57.4134H31.1875ZM31.1875 55.0144V57.4134H28.7885V55.0144H31.1875ZM28.7885 55.0144V57.4134H26.3894V55.0144H28.7885ZM28.7885 52.6154V55.0144H26.3894V52.6154H28.7885ZM26.3894 52.6154V55.0144H23.9904V52.6154H26.3894ZM26.3894 50.2163V52.6154H23.9904V50.2163H26.3894ZM23.9904 50.2163V52.6154H21.5914V50.2163H23.9904ZM23.9904 47.8173V50.2163H21.5914V47.8173H23.9904ZM21.5914 45.4182V47.8173H19.1923V45.4182H21.5914ZM19.1923 45.4182V47.8173H16.7933V45.4182H19.1923ZM19.1923 43.0192V45.4182H16.7933V43.0192H19.1923ZM19.1923 40.6202V43.0192H16.7933V40.6202H19.1923ZM19.1923 38.2211V40.6202H16.7933V38.2211H19.1923ZM19.1923 35.8221V38.2211H16.7933V35.8221H19.1923ZM21.5914 38.2211V40.6202H19.1923V38.2211H21.5914ZM21.5914 40.6202V43.0192H19.1923V40.6202H21.5914ZM23.9904 40.6202V43.0192H21.5914V40.6202H23.9904ZM23.9904 43.0192V45.4182H21.5914V43.0192H23.9904ZM26.3894 43.0192V45.4182H23.9904V43.0192H26.3894ZM26.3894 45.4182V47.8173H23.9904V45.4182H26.3894ZM28.7885 45.4182V47.8173H26.3894V45.4182H28.7885ZM28.7885 47.8173V50.2163H26.3894V47.8173H28.7885ZM31.1875 47.8173V50.2163H28.7885V47.8173H31.1875ZM31.1875 50.2163V52.6154H28.7885V50.2163H31.1875ZM31.1875 52.6154V55.0144H28.7885V52.6154H31.1875ZM28.7885 50.2163V52.6154H26.3894V50.2163H28.7885ZM26.3894 47.8173V50.2163H23.9904V47.8173H26.3894ZM23.9904 45.4182V47.8173H21.5914V45.4182H23.9904ZM35.9856 47.8173V50.2163H33.5866V47.8173H35.9856ZM35.9856 50.2163V52.6154H33.5866V50.2163H35.9856ZM35.9856 52.6154V55.0144H33.5866V52.6154H35.9856ZM35.9856 55.0144V57.4134H33.5866V55.0144H35.9856ZM35.9856 57.4134V59.8125H33.5866V57.4134H35.9856ZM35.9856 59.8125V62.2115H33.5866V59.8125H35.9856ZM35.9856 62.2115V64.6106H33.5866V62.2115H35.9856ZM79.1379 76.6058V74.2067H81.5369V76.6058H79.1379ZM76.7388 76.6058V74.2067H79.1379V76.6058H76.7388ZM74.3398 76.6058V74.2067H76.7388V76.6058H74.3398ZM71.9408 76.6058V74.2067H74.3398V76.6058H71.9408ZM69.5417 76.6058V74.2067H71.9408V76.6058H69.5417ZM69.5417 79.0048V76.6058H71.9408V79.0048H69.5417ZM69.5417 81.4038V79.0048H71.9408V81.4038H69.5417ZM71.9408 81.4038V79.0048H74.3398V81.4038H71.9408ZM74.3398 81.4038V79.0048H76.7388V81.4038H74.3398ZM76.7388 81.4038V79.0048H79.1379V81.4038H76.7388ZM76.7388 79.0048V76.6058H79.1379V79.0048H76.7388ZM79.1379 79.0048V76.6058H81.5369V79.0048H79.1379ZM74.3398 79.0048V76.6058H76.7388V79.0048H74.3398ZM71.9408 79.0048V76.6058H74.3398V79.0048H71.9408ZM79.1379 81.4038V79.0048H81.5369V81.4038H79.1379ZM81.5369 81.4038V79.0048H83.936V81.4038H81.5369ZM81.5369 83.8029V81.4038H83.936V83.8029H81.5369ZM79.1379 83.8029V81.4038H81.5369V83.8029H79.1379ZM76.7388 83.8029V81.4038H79.1379V83.8029H76.7388ZM74.3398 83.8029V81.4038H76.7388V83.8029H74.3398ZM71.9408 83.8029V81.4038H74.3398V83.8029H71.9408ZM71.9408 86.2019V83.8029H74.3398V86.2019H71.9408ZM74.3398 86.2019V83.8029H76.7388V86.2019H74.3398ZM76.7388 86.2019V83.8029H79.1379V86.2019H76.7388ZM79.1379 86.2019V83.8029H81.5369V86.2019H79.1379ZM81.5369 86.2019V83.8029H83.936V86.2019H81.5369ZM76.7388 88.601V86.2019H79.1379V88.601H76.7388ZM74.3398 88.601V86.2019H76.7388V88.601H74.3398ZM79.1379 88.601V86.2019H81.5369V88.601H79.1379ZM79.1379 91V88.601H81.5369V91H79.1379ZM81.5369 91V88.601H83.936V91H81.5369ZM81.5369 88.601V86.2019H83.936V88.601H81.5369ZM83.936 88.601V86.2019H86.335V88.601H83.936ZM83.936 91V88.601H86.335V91H83.936ZM83.936 86.2019V83.8029H86.335V86.2019H83.936ZM86.335 86.2019V83.8029H88.734V86.2019H86.335ZM86.335 83.8029V81.4038H88.734V83.8029H86.335ZM83.936 83.8029V81.4038H86.335V83.8029H83.936ZM88.734 83.8029V81.4038H91.1331V83.8029H88.734ZM88.734 86.2019V83.8029H91.1331V86.2019H88.734ZM88.734 88.601V86.2019H91.1331V88.601H88.734ZM88.734 91V88.601H91.1331V91H88.734ZM86.335 91V88.601H88.734V91H86.335ZM86.335 88.601V86.2019H88.734V88.601H86.335ZM91.1331 91V88.601H93.5321V91H91.1331ZM95.9312 88.601V86.2019H98.3302V88.601H95.9312ZM95.9312 86.2019V83.8029H98.3302V86.2019H95.9312ZM95.9312 83.8029V81.4038H98.3302V83.8029H95.9312ZM93.5321 83.8029V81.4038H95.9312V83.8029H93.5321ZM91.1331 83.8029V81.4038H93.5321V83.8029H91.1331ZM91.1331 86.2019V83.8029H93.5321V86.2019H91.1331ZM91.1331 88.601V86.2019H93.5321V88.601H91.1331ZM93.5321 88.601V86.2019H95.9312V88.601H93.5321ZM93.5321 86.2019V83.8029H95.9312V86.2019H93.5321ZM98.3302 86.2019V83.8029H100.729V86.2019H98.3302ZM98.3302 88.601V86.2019H100.729V88.601H98.3302ZM100.729 88.601V86.2019H103.128V88.601H100.729ZM100.729 86.2019V83.8029H103.128V86.2019H100.729ZM103.128 86.2019V83.8029H105.527V86.2019H103.128ZM103.128 83.8029V81.4038H105.527V83.8029H103.128ZM103.128 81.4038V79.0048H105.527V81.4038H103.128ZM100.729 81.4038V79.0048H103.128V81.4038H100.729ZM100.729 83.8029V81.4038H103.128V83.8029H100.729ZM98.3302 83.8029V81.4038H100.729V83.8029H98.3302ZM98.3302 81.4038V79.0048H100.729V81.4038H98.3302ZM95.9312 81.4038V79.0048H98.3302V81.4038H95.9312ZM105.527 81.4038V79.0048H107.926V81.4038H105.527ZM105.527 79.0048V76.6058H107.926V79.0048H105.527ZM105.527 76.6058V74.2067H107.926V76.6058H105.527ZM105.527 74.2067V71.8077H107.926V74.2067H105.527ZM105.527 71.8077V69.4086H107.926V71.8077H105.527ZM105.527 69.4086V67.0096H107.926V69.4086H105.527ZM105.527 67.0096V64.6106H107.926V67.0096H105.527ZM105.527 64.6106V62.2115H107.926V64.6106H105.527ZM105.527 62.2115V59.8125H107.926V62.2115H105.527ZM105.527 59.8125V57.4134H107.926V59.8125H105.527ZM103.128 59.8125V57.4134H105.527V59.8125H103.128ZM103.128 57.4134V55.0144H105.527V57.4134H103.128ZM105.527 57.4134V55.0144H107.926V57.4134H105.527ZM100.729 57.4134V55.0144H103.128V57.4134H100.729ZM98.3302 57.4134V55.0144H100.729V57.4134H98.3302ZM95.9312 57.4134V55.0144H98.3302V57.4134H95.9312ZM93.5321 57.4134V55.0144H95.9312V57.4134H93.5321ZM95.9312 59.8125V57.4134H98.3302V59.8125H95.9312ZM95.9312 62.2115V59.8125H98.3302V62.2115H95.9312ZM95.9312 64.6106V62.2115H98.3302V64.6106H95.9312ZM95.9312 67.0096V64.6106H98.3302V67.0096H95.9312ZM95.9312 69.4086V67.0096H98.3302V69.4086H95.9312ZM95.9312 71.8077V69.4086H98.3302V71.8077H95.9312ZM95.9312 74.2067V71.8077H98.3302V74.2067H95.9312ZM95.9312 76.6058V74.2067H98.3302V76.6058H95.9312ZM95.9312 79.0048V76.6058H98.3302V79.0048H95.9312ZM98.3302 79.0048V76.6058H100.729V79.0048H98.3302ZM100.729 79.0048V76.6058H103.128V79.0048H100.729ZM103.128 79.0048V76.6058H105.527V79.0048H103.128ZM103.128 76.6058V74.2067H105.527V76.6058H103.128ZM103.128 74.2067V71.8077H105.527V74.2067H103.128ZM103.128 71.8077V69.4086H105.527V71.8077H103.128ZM103.128 69.4086V67.0096H105.527V69.4086H103.128ZM103.128 67.0096V64.6106H105.527V67.0096H103.128ZM103.128 64.6106V62.2115H105.527V64.6106H103.128ZM103.128 62.2115V59.8125H105.527V62.2115H103.128ZM100.729 59.8125V57.4134H103.128V59.8125H100.729ZM98.3302 59.8125V57.4134H100.729V59.8125H98.3302ZM98.3302 62.2115V59.8125H100.729V62.2115H98.3302ZM98.3302 64.6106V62.2115H100.729V64.6106H98.3302ZM98.3302 67.0096V64.6106H100.729V67.0096H98.3302ZM98.3302 69.4086V67.0096H100.729V69.4086H98.3302ZM100.729 69.4086V67.0096H103.128V69.4086H100.729ZM100.729 71.8077V69.4086H103.128V71.8077H100.729ZM100.729 74.2067V71.8077H103.128V74.2067H100.729ZM100.729 76.6058V74.2067H103.128V76.6058H100.729ZM98.3302 76.6058V74.2067H100.729V76.6058H98.3302ZM98.3302 74.2067V71.8077H100.729V74.2067H98.3302ZM98.3302 71.8077V69.4086H100.729V71.8077H98.3302ZM100.729 64.6106V62.2115H103.128V64.6106H100.729ZM100.729 62.2115V59.8125H103.128V62.2115H100.729ZM100.729 67.0096V64.6106H103.128V67.0096H100.729ZM79.1379 59.8125V57.4134H81.5369V59.8125H79.1379ZM76.7388 59.8125V57.4134H79.1379V59.8125H76.7388ZM74.3398 59.8125V57.4134H76.7388V59.8125H74.3398ZM71.9408 59.8125V57.4134H74.3398V59.8125H71.9408ZM69.5417 59.8125V57.4134H71.9408V59.8125H69.5417ZM69.5417 57.4134V55.0144H71.9408V57.4134H69.5417ZM71.9408 57.4134V55.0144H74.3398V57.4134H71.9408ZM74.3398 57.4134V55.0144H76.7388V57.4134H74.3398ZM76.7388 57.4134V55.0144H79.1379V57.4134H76.7388ZM79.1379 57.4134V55.0144H81.5369V57.4134H79.1379ZM81.5369 57.4134V55.0144H83.936V57.4134H81.5369ZM81.5369 55.0144V52.6154H83.936V55.0144H81.5369ZM79.1379 55.0144V52.6154H81.5369V55.0144H79.1379ZM76.7388 55.0144V52.6154H79.1379V55.0144H76.7388ZM74.3398 55.0144V52.6154H76.7388V55.0144H74.3398ZM74.3398 52.6154V50.2163H76.7388V52.6154H74.3398ZM71.9408 52.6154V50.2163H74.3398V52.6154H71.9408ZM71.9408 55.0144V52.6154H74.3398V55.0144H71.9408ZM74.3398 50.2163V47.8173H76.7388V50.2163H74.3398ZM76.7388 50.2163V47.8173H79.1379V50.2163H76.7388ZM76.7388 52.6154V50.2163H79.1379V52.6154H76.7388ZM79.1379 52.6154V50.2163H81.5369V52.6154H79.1379ZM79.1379 50.2163V47.8173H81.5369V50.2163H79.1379ZM79.1379 47.8173V45.4182H81.5369V47.8173H79.1379ZM81.5369 47.8173V45.4182H83.936V47.8173H81.5369ZM83.936 47.8173V45.4182H86.335V47.8173H83.936ZM86.335 47.8173V45.4182H88.734V47.8173H86.335ZM88.734 47.8173V45.4182H91.1331V47.8173H88.734ZM91.1331 47.8173V45.4182H93.5321V47.8173H91.1331ZM93.5321 47.8173V45.4182H95.9312V47.8173H93.5321ZM95.9312 47.8173V45.4182H98.3302V47.8173H95.9312ZM93.5321 50.2163V47.8173H95.9312V50.2163H93.5321ZM91.1331 50.2163V47.8173H93.5321V50.2163H91.1331ZM88.734 50.2163V47.8173H91.1331V50.2163H88.734ZM86.335 50.2163V47.8173H88.734V50.2163H86.335ZM83.936 50.2163V47.8173H86.335V50.2163H83.936ZM81.5369 50.2163V47.8173H83.936V50.2163H81.5369ZM81.5369 52.6154V50.2163H83.936V52.6154H81.5369ZM83.936 52.6154V50.2163H86.335V52.6154H83.936ZM86.335 52.6154V50.2163H88.734V52.6154H86.335ZM88.734 52.6154V50.2163H91.1331V52.6154H88.734ZM91.1331 52.6154V50.2163H93.5321V52.6154H91.1331ZM93.5321 52.6154V50.2163H95.9312V52.6154H93.5321ZM95.9312 50.2163V47.8173H98.3302V50.2163H95.9312ZM98.3302 50.2163V47.8173H100.729V50.2163H98.3302ZM100.729 50.2163V47.8173H103.128V50.2163H100.729ZM100.729 52.6154V50.2163H103.128V52.6154H100.729ZM103.128 52.6154V50.2163H105.527V52.6154H103.128ZM103.128 55.0144V52.6154H105.527V55.0144H103.128ZM100.729 55.0144V52.6154H103.128V55.0144H100.729ZM98.3302 55.0144V52.6154H100.729V55.0144H98.3302ZM95.9312 55.0144V52.6154H98.3302V55.0144H95.9312ZM93.5321 55.0144V52.6154H95.9312V55.0144H93.5321ZM91.1331 55.0144V52.6154H93.5321V55.0144H91.1331ZM88.734 55.0144V52.6154H91.1331V55.0144H88.734ZM86.335 55.0144V52.6154H88.734V55.0144H86.335ZM83.936 55.0144V52.6154H86.335V55.0144H83.936ZM95.9312 52.6154V50.2163H98.3302V52.6154H95.9312ZM98.3302 52.6154V50.2163H100.729V52.6154H98.3302ZM71.9408 74.2067V71.8077H74.3398V74.2067H71.9408ZM74.3398 74.2067V71.8077H76.7388V74.2067H74.3398ZM76.7388 74.2067V71.8077H79.1379V74.2067H76.7388ZM79.1379 74.2067V71.8077H81.5369V74.2067H79.1379ZM74.3398 71.8077V69.4086H76.7388V71.8077H74.3398ZM76.7388 71.8077V69.4086H79.1379V71.8077H76.7388ZM81.5369 71.8077V69.4086H83.936V71.8077H81.5369ZM83.936 71.8077V69.4086H86.335V71.8077H83.936ZM86.335 71.8077V69.4086H88.734V71.8077H86.335ZM88.734 71.8077V69.4086H91.1331V71.8077H88.734ZM91.1331 71.8077V69.4086H93.5321V71.8077H91.1331ZM93.5321 71.8077V69.4086H95.9312V71.8077H93.5321ZM79.1379 71.8077V69.4086H81.5369V71.8077H79.1379ZM71.9408 71.8077V69.4086H74.3398V71.8077H71.9408ZM74.3398 69.4086V67.0096H76.7388V69.4086H74.3398ZM76.7388 69.4086V67.0096H79.1379V69.4086H76.7388ZM79.1379 69.4086V67.0096H81.5369V69.4086H79.1379ZM81.5369 69.4086V67.0096H83.936V69.4086H81.5369ZM83.936 69.4086V67.0096H86.335V69.4086H83.936ZM86.335 69.4086V67.0096H88.734V69.4086H86.335ZM88.734 69.4086V67.0096H91.1331V69.4086H88.734ZM91.1331 69.4086V67.0096H93.5321V69.4086H91.1331ZM93.5321 69.4086V67.0096H95.9312V69.4086H93.5321ZM93.5321 67.0096V64.6106H95.9312V67.0096H93.5321ZM91.1331 67.0096V64.6106H93.5321V67.0096H91.1331ZM88.734 67.0096V64.6106H91.1331V67.0096H88.734ZM83.936 67.0096V64.6106H86.335V67.0096H83.936ZM81.5369 67.0096V64.6106H83.936V67.0096H81.5369ZM79.1379 67.0096V64.6106H81.5369V67.0096H79.1379ZM86.335 67.0096V64.6106H88.734V67.0096H86.335ZM107.926 81.4038V83.8029H105.527V81.4038H107.926ZM107.926 83.8029V86.2019H105.527V83.8029H107.926ZM107.926 86.2019V88.601H105.527V86.2019H107.926ZM107.926 88.601V91H105.527V88.601H107.926ZM105.527 88.601V91H103.128V88.601H105.527ZM105.527 86.2019V88.601H103.128V86.2019H105.527ZM103.128 88.601V91H100.729V88.601H103.128ZM100.729 88.601V91H98.3302V88.601H100.729ZM98.3302 88.601V91H95.9312V88.601H98.3302ZM95.9312 79.0048V81.4038H93.5321V79.0048H95.9312ZM79.1379 88.601V91H76.7388V88.601H79.1379ZM83.936 71.8077V74.2067H81.5369V71.8077H83.936ZM119.966 45.4182V47.8173H117.567V45.4182H119.966ZM122.365 45.4182V47.8173H119.966V45.4182H122.365ZM124.764 45.4182V47.8173H122.365V45.4182H124.764ZM127.163 45.4182V47.8173H124.764V45.4182H127.163ZM127.163 47.8173V50.2163H124.764V47.8173H127.163ZM129.562 47.8173V50.2163H127.163V47.8173H129.562ZM129.562 50.2163V52.6154H127.163V50.2163H129.562ZM129.562 45.4182V47.8173H127.163V45.4182H129.562ZM129.562 52.6154V55.0144H127.163V52.6154H129.562ZM129.562 55.0144V57.4134H127.163V55.0144H129.562ZM129.562 57.4134V59.8125H127.163V57.4134H129.562ZM129.562 59.8125V62.2115H127.163V59.8125H129.562ZM129.562 62.2115V64.6106H127.163V62.2115H129.562ZM129.562 64.6106V67.0096H127.163V64.6106H129.562ZM129.562 67.0096V69.4086H127.163V67.0096H129.562ZM129.562 69.4086V71.8077H127.163V69.4086H129.562ZM129.562 71.8077V74.2067H127.163V71.8077H129.562ZM127.163 71.8077V74.2067H124.764V71.8077H127.163ZM124.764 74.2067V76.6058H122.365V74.2067H124.764ZM122.365 74.2067V76.6058H119.966V74.2067H122.365ZM119.966 74.2067V76.6058H117.567V74.2067H119.966ZM119.966 71.8077V74.2067H117.567V71.8077H119.966ZM119.966 69.4086V71.8077H117.567V69.4086H119.966ZM119.966 67.0096V69.4086H117.567V67.0096H119.966ZM119.966 64.6106V67.0096H117.567V64.6106H119.966ZM122.365 64.6106V67.0096H119.966V64.6106H122.365ZM122.365 62.2115V64.6106H119.966V62.2115H122.365ZM122.365 59.8125V62.2115H119.966V59.8125H122.365ZM122.365 57.4134V59.8125H119.966V57.4134H122.365ZM122.365 55.0144V57.4134H119.966V55.0144H122.365ZM122.365 52.6154V55.0144H119.966V52.6154H122.365ZM122.365 50.2163V52.6154H119.966V50.2163H122.365ZM122.365 47.8173V50.2163H119.966V47.8173H122.365ZM119.966 47.8173V50.2163H117.567V47.8173H119.966ZM119.966 50.2163V52.6154H117.567V50.2163H119.966ZM119.966 52.6154V55.0144H117.567V52.6154H119.966ZM119.966 55.0144V57.4134H117.567V55.0144H119.966ZM119.966 57.4134V59.8125H117.567V57.4134H119.966ZM119.966 59.8125V62.2115H117.567V59.8125H119.966ZM119.966 62.2115V64.6106H117.567V62.2115H119.966ZM124.764 57.4134V59.8125H122.365V57.4134H124.764ZM124.764 55.0144V57.4134H122.365V55.0144H124.764ZM124.764 52.6154V55.0144H122.365V52.6154H124.764ZM124.764 50.2163V52.6154H122.365V50.2163H124.764ZM124.764 47.8173V50.2163H122.365V47.8173H124.764ZM127.163 57.4134V59.8125H124.764V57.4134H127.163ZM127.163 59.8125V62.2115H124.764V59.8125H127.163ZM127.163 55.0144V57.4134H124.764V55.0144H127.163ZM127.163 52.6154V55.0144H124.764V52.6154H127.163ZM127.163 50.2163V52.6154H124.764V50.2163H127.163ZM124.764 64.6106V67.0096H122.365V64.6106H124.764ZM124.764 62.2115V64.6106H122.365V62.2115H124.764ZM124.764 59.8125V62.2115H122.365V59.8125H124.764ZM127.163 62.2115V64.6106H124.764V62.2115H127.163ZM127.163 64.6106V67.0096H124.764V64.6106H127.163ZM127.163 67.0096V69.4086H124.764V67.0096H127.163ZM124.764 69.4086V71.8077H122.365V69.4086H124.764ZM124.764 71.8077V74.2067H122.365V71.8077H124.764ZM124.764 67.0096V69.4086H122.365V67.0096H124.764ZM122.365 67.0096V69.4086H119.966V67.0096H122.365ZM122.365 69.4086V71.8077H119.966V69.4086H122.365ZM122.365 71.8077V74.2067H119.966V71.8077H122.365ZM127.163 69.4086V71.8077H124.764V69.4086H127.163ZM124.764 76.6058V79.0048H122.365V76.6058H124.764ZM122.365 76.6058V79.0048H119.966V76.6058H122.365ZM127.163 76.6058V79.0048H124.764V76.6058H127.163ZM127.163 74.2067V76.6058H124.764V74.2067H127.163ZM129.562 74.2067V76.6058H127.163V74.2067H129.562ZM131.961 74.2067V76.6058H129.562V74.2067H131.961ZM131.961 76.6058V79.0048H129.562V76.6058H131.961ZM129.562 76.6058V79.0048H127.163V76.6058H129.562ZM134.36 76.6058V79.0048H131.961V76.6058H134.36ZM124.764 79.0048V81.4038H122.365V79.0048H124.764ZM127.163 79.0048V81.4038H124.764V79.0048H127.163ZM129.562 79.0048V81.4038H127.163V79.0048H129.562ZM131.961 79.0048V81.4038H129.562V79.0048H131.961ZM134.36 79.0048V81.4038H131.961V79.0048H134.36ZM136.759 79.0048V81.4038H134.36V79.0048H136.759ZM139.158 79.0048V81.4038H136.759V79.0048H139.158ZM141.557 79.0048V81.4038H139.158V79.0048H141.557ZM143.956 79.0048V81.4038H141.557V79.0048H143.956ZM146.356 79.0048V81.4038H143.956V79.0048H146.356ZM148.755 79.0048V81.4038H146.356V79.0048H148.755ZM151.154 79.0048V81.4038H148.755V79.0048H151.154ZM148.755 76.6058V79.0048H146.356V76.6058H148.755ZM146.356 76.6058V79.0048H143.956V76.6058H146.356ZM143.956 76.6058V79.0048H141.557V76.6058H143.956ZM141.557 76.6058V79.0048H139.158V76.6058H141.557ZM143.956 74.2067V76.6058H141.557V74.2067H143.956ZM146.356 74.2067V76.6058H143.956V74.2067H146.356ZM148.755 74.2067V76.6058H146.356V74.2067H148.755ZM151.154 74.2067V76.6058H148.755V74.2067H151.154ZM153.553 74.2067V76.6058H151.154V74.2067H153.553ZM153.553 76.6058V79.0048H151.154V76.6058H153.553ZM151.154 76.6058V79.0048H148.755V76.6058H151.154ZM155.952 74.2067V76.6058H153.553V74.2067H155.952ZM134.36 88.601V91H131.961V88.601H134.36ZM134.36 86.2019V88.601H131.961V86.2019H134.36ZM134.36 83.8029V86.2019H131.961V83.8029H134.36ZM136.759 83.8029V86.2019H134.36V83.8029H136.759ZM136.759 81.4038V83.8029H134.36V81.4038H136.759ZM139.158 81.4038V83.8029H136.759V81.4038H139.158ZM141.557 81.4038V83.8029H139.158V81.4038H141.557ZM141.557 83.8029V86.2019H139.158V83.8029H141.557ZM141.557 86.2019V88.601H139.158V86.2019H141.557ZM141.557 88.601V91H139.158V88.601H141.557ZM139.158 88.601V91H136.759V88.601H139.158ZM136.759 88.601V91H134.36V88.601H136.759ZM136.759 86.2019V88.601H134.36V86.2019H136.759ZM139.158 83.8029V86.2019H136.759V83.8029H139.158ZM139.158 86.2019V88.601H136.759V86.2019H139.158ZM143.956 83.8029V86.2019H141.557V83.8029H143.956ZM143.956 81.4038V83.8029H141.557V81.4038H143.956ZM146.356 81.4038V83.8029H143.956V81.4038H146.356ZM148.755 81.4038V83.8029H146.356V81.4038H148.755ZM146.356 83.8029V86.2019H143.956V83.8029H146.356ZM143.956 86.2019V88.601H141.557V86.2019H143.956ZM127.163 81.4038V83.8029H124.764V81.4038H127.163ZM129.562 81.4038V83.8029H127.163V81.4038H129.562ZM129.562 83.8029V86.2019H127.163V83.8029H129.562ZM131.961 83.8029V86.2019H129.562V83.8029H131.961ZM131.961 86.2019V88.601H129.562V86.2019H131.961ZM134.36 81.4038V83.8029H131.961V81.4038H134.36ZM131.961 81.4038V83.8029H129.562V81.4038H131.961ZM146.356 71.8077V74.2067H143.956V71.8077H146.356ZM146.356 69.4086V71.8077H143.956V69.4086H146.356ZM146.356 67.0096V69.4086H143.956V67.0096H146.356ZM146.356 64.6106V67.0096H143.956V64.6106H146.356ZM148.755 64.6106V67.0096H146.356V64.6106H148.755ZM151.154 64.6106V67.0096H148.755V64.6106H151.154ZM153.553 64.6106V67.0096H151.154V64.6106H153.553ZM155.952 64.6106V67.0096H153.553V64.6106H155.952ZM155.952 67.0096V69.4086H153.553V67.0096H155.952ZM155.952 69.4086V71.8077H153.553V69.4086H155.952ZM155.952 71.8077V74.2067H153.553V71.8077H155.952ZM153.553 71.8077V74.2067H151.154V71.8077H153.553ZM151.154 71.8077V74.2067H148.755V71.8077H151.154ZM148.755 71.8077V74.2067H146.356V71.8077H148.755ZM151.154 69.4086V71.8077H148.755V69.4086H151.154ZM153.553 69.4086V71.8077H151.154V69.4086H153.553ZM153.553 67.0096V69.4086H151.154V67.0096H153.553ZM151.154 67.0096V69.4086H148.755V67.0096H151.154ZM148.755 67.0096V69.4086H146.356V67.0096H148.755ZM148.755 69.4086V71.8077H146.356V69.4086H148.755ZM146.356 62.2115V64.6106H143.956V62.2115H146.356ZM146.356 59.8125V62.2115H143.956V59.8125H146.356ZM146.356 57.4134V59.8125H143.956V57.4134H146.356ZM146.356 55.0144V57.4134H143.956V55.0144H146.356ZM146.356 52.6154V55.0144H143.956V52.6154H146.356ZM146.356 50.2163V52.6154H143.956V50.2163H146.356ZM146.356 47.8173V50.2163H143.956V47.8173H146.356ZM146.356 45.4182V47.8173H143.956V45.4182H146.356ZM148.755 47.8173V50.2163H146.356V47.8173H148.755ZM148.755 45.4182V47.8173H146.356V45.4182H148.755ZM151.154 45.4182V47.8173H148.755V45.4182H151.154ZM153.553 45.4182V47.8173H151.154V45.4182H153.553ZM153.553 47.8173V50.2163H151.154V47.8173H153.553ZM153.553 50.2163V52.6154H151.154V50.2163H153.553ZM155.952 50.2163V52.6154H153.553V50.2163H155.952ZM155.952 52.6154V55.0144H153.553V52.6154H155.952ZM155.952 55.0144V57.4134H153.553V55.0144H155.952ZM155.952 57.4134V59.8125H153.553V57.4134H155.952ZM155.952 59.8125V62.2115H153.553V59.8125H155.952ZM155.952 62.2115V64.6106H153.553V62.2115H155.952ZM155.952 47.8173V50.2163H153.553V47.8173H155.952ZM155.952 45.4182V47.8173H153.553V45.4182H155.952ZM151.154 47.8173V50.2163H148.755V47.8173H151.154ZM151.154 50.2163V52.6154H148.755V50.2163H151.154ZM151.154 52.6154V55.0144H148.755V52.6154H151.154ZM151.154 55.0144V57.4134H148.755V55.0144H151.154ZM151.154 57.4134V59.8125H148.755V57.4134H151.154ZM151.154 59.8125V62.2115H148.755V59.8125H151.154ZM148.755 59.8125V62.2115H146.356V59.8125H148.755ZM148.755 62.2115V64.6106H146.356V62.2115H148.755ZM148.755 57.4134V59.8125H146.356V57.4134H148.755ZM148.755 55.0144V57.4134H146.356V55.0144H148.755ZM148.755 52.6154V55.0144H146.356V52.6154H148.755ZM148.755 50.2163V52.6154H146.356V50.2163H148.755ZM153.553 52.6154V55.0144H151.154V52.6154H153.553ZM153.553 55.0144V57.4134H151.154V55.0144H153.553ZM153.553 57.4134V59.8125H151.154V57.4134H153.553ZM153.553 59.8125V62.2115H151.154V59.8125H153.553ZM153.553 62.2115V64.6106H151.154V62.2115H153.553ZM151.154 62.2115V64.6106H148.755V62.2115H151.154ZM129.562 88.601V91H127.163V88.601H129.562ZM131.961 88.601V91H129.562V88.601H131.961ZM134.36 91V93.399H131.961V91H134.36ZM136.759 91V93.399H134.36V91H136.759ZM139.158 91V93.399H136.759V91H139.158ZM131.961 91V93.399H129.562V91H131.961ZM129.562 91V93.399H127.163V91H129.562ZM127.163 91V93.399H124.764V91H127.163ZM127.163 93.399V95.7981H124.764V93.399H127.163ZM124.764 93.399V95.7981H122.365V93.399H124.764ZM124.764 95.7981V98.1971H122.365V95.7981H124.764ZM122.365 95.7981V98.1971H119.966V95.7981H122.365ZM122.365 98.1971V100.596H119.966V98.1971H122.365ZM122.365 100.596V102.995H119.966V100.596H122.365ZM122.365 102.995V105.394H119.966V102.995H122.365ZM124.764 102.995V105.394H122.365V102.995H124.764ZM127.163 102.995V105.394H124.764V102.995H127.163ZM127.163 100.596V102.995H124.764V100.596H127.163ZM127.163 98.1971V100.596H124.764V98.1971H127.163ZM124.764 98.1971V100.596H122.365V98.1971H124.764ZM124.764 100.596V102.995H122.365V100.596H124.764ZM129.562 98.1971V100.596H127.163V98.1971H129.562ZM129.562 100.596V102.995H127.163V100.596H129.562ZM131.961 98.1971V100.596H129.562V98.1971H131.961ZM131.961 95.7981V98.1971H129.562V95.7981H131.961ZM134.36 95.7981V98.1971H131.961V95.7981H134.36ZM134.36 93.399V95.7981H131.961V93.399H134.36ZM136.759 93.399V95.7981H134.36V93.399H136.759ZM131.961 93.399V95.7981H129.562V93.399H131.961ZM129.562 93.399V95.7981H127.163V93.399H129.562ZM129.562 95.7981V98.1971H127.163V95.7981H129.562ZM127.163 95.7981V98.1971H124.764V95.7981H127.163ZM192.008 88.601V91H189.609V88.601H192.008ZM192.008 86.2019V88.601H189.609V86.2019H192.008ZM192.008 83.8029V86.2019H189.609V83.8029H192.008ZM192.008 81.4038V83.8029H189.609V81.4038H192.008ZM192.008 79.0048V81.4038H189.609V79.0048H192.008ZM192.008 76.6058V79.0048H189.609V76.6058H192.008ZM192.008 74.2067V76.6058H189.609V74.2067H192.008ZM192.008 71.8077V74.2067H189.609V71.8077H192.008ZM192.008 69.4086V71.8077H189.609V69.4086H192.008ZM192.008 67.0096V69.4086H189.609V67.0096H192.008ZM192.008 64.6106V67.0096H189.609V64.6106H192.008ZM192.008 62.2115V64.6106H189.609V62.2115H192.008ZM192.008 59.8125V62.2115H189.609V59.8125H192.008ZM192.008 57.4134V59.8125H189.609V57.4134H192.008ZM192.008 55.0144V57.4134H189.609V55.0144H192.008ZM194.407 55.0144V57.4134H192.008V55.0144H194.407ZM194.407 57.4134V59.8125H192.008V57.4134H194.407ZM194.407 59.8125V62.2115H192.008V59.8125H194.407ZM194.407 62.2115V64.6106H192.008V62.2115H194.407ZM194.407 64.6106V67.0096H192.008V64.6106H194.407ZM194.407 67.0096V69.4086H192.008V67.0096H194.407ZM194.407 69.4086V71.8077H192.008V69.4086H194.407ZM196.806 71.8077V74.2067H194.407V71.8077H196.806ZM196.806 74.2067V76.6058H194.407V74.2067H196.806ZM196.806 76.6058V79.0048H194.407V76.6058H196.806ZM196.806 79.0048V81.4038H194.407V79.0048H196.806ZM196.806 81.4038V83.8029H194.407V81.4038H196.806ZM196.806 83.8029V86.2019H194.407V83.8029H196.806ZM196.806 86.2019V88.601H194.407V86.2019H196.806ZM196.806 88.601V91H194.407V88.601H196.806ZM199.205 88.601V91H196.806V88.601H199.205ZM201.604 88.601V91H199.205V88.601H201.604ZM201.604 86.2019V88.601H199.205V86.2019H201.604ZM201.604 83.8029V86.2019H199.205V83.8029H201.604ZM201.604 81.4038V83.8029H199.205V81.4038H201.604ZM201.604 79.0048V81.4038H199.205V79.0048H201.604ZM201.604 76.6058V79.0048H199.205V76.6058H201.604ZM201.604 74.2067V76.6058H199.205V74.2067H201.604ZM201.604 71.8077V74.2067H199.205V71.8077H201.604ZM199.205 71.8077V74.2067H196.806V71.8077H199.205ZM199.205 69.4086V71.8077H196.806V69.4086H199.205ZM199.205 74.2067V76.6058H196.806V74.2067H199.205ZM199.205 76.6058V79.0048H196.806V76.6058H199.205ZM199.205 79.0048V81.4038H196.806V79.0048H199.205ZM199.205 81.4038V83.8029H196.806V81.4038H199.205ZM199.205 83.8029V86.2019H196.806V83.8029H199.205ZM199.205 86.2019V88.601H196.806V86.2019H199.205ZM194.407 88.601V91H192.008V88.601H194.407ZM194.407 86.2019V88.601H192.008V86.2019H194.407ZM194.407 83.8029V86.2019H192.008V83.8029H194.407ZM194.407 81.4038V83.8029H192.008V81.4038H194.407ZM194.407 79.0048V81.4038H192.008V79.0048H194.407ZM194.407 76.6058V79.0048H192.008V76.6058H194.407ZM194.407 74.2067V76.6058H192.008V74.2067H194.407ZM194.407 71.8077V74.2067H192.008V71.8077H194.407ZM192.008 31.024V33.423H189.609V31.024H192.008ZM192.008 33.423V35.8221H189.609V33.423H192.008ZM192.008 35.8221V38.2211H189.609V35.8221H192.008ZM192.008 38.2211V40.6202H189.609V38.2211H192.008ZM192.008 40.6202V43.0192H189.609V40.6202H192.008ZM192.008 43.0192V45.4182H189.609V43.0192H192.008ZM192.008 45.4182V47.8173H189.609V45.4182H192.008ZM192.008 47.8173V50.2163H189.609V47.8173H192.008ZM192.008 50.2163V52.6154H189.609V50.2163H192.008ZM192.008 52.6154V55.0144H189.609V52.6154H192.008ZM199.205 31.024V33.423H196.806V31.024H199.205ZM199.205 33.423V35.8221H196.806V33.423H199.205ZM199.205 35.8221V38.2211H196.806V35.8221H199.205ZM199.205 38.2211V40.6202H196.806V38.2211H199.205ZM199.205 40.6202V43.0192H196.806V40.6202H199.205ZM199.205 43.0192V45.4182H196.806V43.0192H199.205ZM199.205 47.8173V50.2163H196.806V47.8173H199.205ZM199.205 50.2163V52.6154H196.806V50.2163H199.205ZM199.205 52.6154V55.0144H196.806V52.6154H199.205ZM199.205 55.0144V57.4134H196.806V55.0144H199.205ZM199.205 57.4134V59.8125H196.806V57.4134H199.205ZM199.205 59.8125V62.2115H196.806V59.8125H199.205ZM199.205 62.2115V64.6106H196.806V62.2115H199.205ZM201.604 64.6106V67.0096H199.205V64.6106H201.604ZM201.604 67.0096V69.4086H199.205V67.0096H201.604ZM201.604 69.4086V71.8077H199.205V69.4086H201.604ZM201.604 62.2115V64.6106H199.205V62.2115H201.604ZM201.604 59.8125V62.2115H199.205V59.8125H201.604ZM201.604 57.4134V59.8125H199.205V57.4134H201.604ZM201.604 55.0144V57.4134H199.205V55.0144H201.604ZM201.604 52.6154V55.0144H199.205V52.6154H201.604ZM201.604 50.2163V52.6154H199.205V50.2163H201.604ZM201.604 47.8173V50.2163H199.205V47.8173H201.604ZM201.604 45.4182V47.8173H199.205V45.4182H201.604ZM201.604 43.0192V45.4182H199.205V43.0192H201.604ZM201.604 40.6202V43.0192H199.205V40.6202H201.604ZM199.205 45.4182V47.8173H196.806V45.4182H199.205ZM201.604 38.2211V40.6202H199.205V38.2211H201.604ZM201.604 35.8221V38.2211H199.205V35.8221H201.604ZM201.604 33.423V35.8221H199.205V33.423H201.604ZM201.604 31.024V33.423H199.205V31.024H201.604ZM196.806 31.024V33.423H194.407V31.024H196.806ZM194.407 31.024V33.423H192.008V31.024H194.407ZM194.407 33.423V35.8221H192.008V33.423H194.407ZM196.806 33.423V35.8221H194.407V33.423H196.806ZM196.806 35.8221V38.2211H194.407V35.8221H196.806ZM196.806 38.2211V40.6202H194.407V38.2211H196.806ZM196.806 40.6202V43.0192H194.407V40.6202H196.806ZM196.806 43.0192V45.4182H194.407V43.0192H196.806ZM196.806 45.4182V47.8173H194.407V45.4182H196.806ZM196.806 47.8173V50.2163H194.407V47.8173H196.806ZM194.407 50.2163V52.6154H192.008V50.2163H194.407ZM194.407 52.6154V55.0144H192.008V52.6154H194.407ZM194.407 47.8173V50.2163H192.008V47.8173H194.407ZM194.407 45.4182V47.8173H192.008V45.4182H194.407ZM194.407 43.0192V45.4182H192.008V43.0192H194.407ZM194.407 40.6202V43.0192H192.008V40.6202H194.407ZM194.407 38.2211V40.6202H192.008V38.2211H194.407ZM194.407 35.8221V38.2211H192.008V35.8221H194.407ZM196.806 50.2163V52.6154H194.407V50.2163H196.806ZM196.806 52.6154V55.0144H194.407V52.6154H196.806ZM196.806 55.0144V57.4134H194.407V55.0144H196.806ZM196.806 57.4134V59.8125H194.407V57.4134H196.806ZM196.806 59.8125V62.2115H194.407V59.8125H196.806ZM196.806 62.2115V64.6106H194.407V62.2115H196.806ZM196.806 64.6106V67.0096H194.407V64.6106H196.806ZM196.806 67.0096V69.4086H194.407V67.0096H196.806ZM196.806 69.4086V71.8077H194.407V69.4086H196.806ZM199.205 67.0096V69.4086H196.806V67.0096H199.205ZM199.205 64.6106V67.0096H196.806V64.6106H199.205Z" fill="white"/>
<mask id="path-2-inside-1_203_540" fill="white">
<path d="M212 19.3333H374.5V102.667H212V19.3333Z"/>
</mask>
<path d="M374.5 99.5928H212V105.74H374.5V99.5928Z" fill="#FF9797" mask="url(#path-2-inside-1_203_540)"/>
<path d="M401.091 79.0048V81.4038H398.692V79.0048H401.091ZM403.49 79.0048V81.4038H401.091V79.0048H403.49ZM405.889 79.0048V81.4038H403.49V79.0048H405.889ZM408.288 79.0048V81.4038H405.889V79.0048H408.288ZM408.288 81.4038V83.8029H405.889V81.4038H408.288ZM408.288 83.8029V86.2019H405.889V83.8029H408.288ZM408.288 86.2019V88.601H405.889V86.2019H408.288ZM408.288 88.601V91H405.889V88.601H408.288ZM405.889 88.601V91H403.49V88.601H405.889ZM403.49 88.601V91H401.091V88.601H403.49ZM401.091 88.601V91H398.692V88.601H401.091ZM398.692 88.601V91H396.293V88.601H398.692ZM398.692 86.2019V88.601H396.293V86.2019H398.692ZM398.692 83.8029V86.2019H396.293V83.8029H398.692ZM398.692 81.4038V83.8029H396.293V81.4038H398.692ZM401.091 81.4038V83.8029H398.692V81.4038H401.091ZM398.692 79.0048V81.4038H396.293V79.0048H398.692ZM401.091 83.8029V86.2019H398.692V83.8029H401.091ZM403.49 86.2019V88.601H401.091V86.2019H403.49ZM405.889 86.2019V88.601H403.49V86.2019H405.889ZM405.889 83.8029V86.2019H403.49V83.8029H405.889ZM405.889 81.4038V83.8029H403.49V81.4038H405.889ZM403.49 81.4038V83.8029H401.091V81.4038H403.49ZM403.49 83.8029V86.2019H401.091V83.8029H403.49ZM401.091 86.2019V88.601H398.692V86.2019H401.091ZM403.49 69.4086V71.8077H401.091V69.4086H403.49ZM403.49 67.0096V69.4086H401.091V67.0096H403.49ZM401.091 67.0096V69.4086H398.692V67.0096H401.091ZM401.091 64.6106V67.0096H398.692V64.6106H401.091ZM398.692 64.6106V67.0096H396.293V64.6106H398.692ZM398.692 62.2115V64.6106H396.293V62.2115H398.692ZM398.692 59.8125V62.2115H396.293V59.8125H398.692ZM401.091 59.8125V62.2115H398.692V59.8125H401.091ZM403.49 59.8125V62.2115H401.091V59.8125H403.49ZM405.889 59.8125V62.2115H403.49V59.8125H405.889ZM408.288 59.8125V62.2115H405.889V59.8125H408.288ZM410.688 59.8125V62.2115H408.288V59.8125H410.688ZM410.688 62.2115V64.6106H408.288V62.2115H410.688ZM408.288 62.2115V64.6106H405.889V62.2115H408.288ZM408.288 64.6106V67.0096H405.889V64.6106H408.288ZM405.889 64.6106V67.0096H403.49V64.6106H405.889ZM405.889 67.0096V69.4086H403.49V67.0096H405.889ZM405.889 62.2115V64.6106H403.49V62.2115H405.889ZM403.49 62.2115V64.6106H401.091V62.2115H403.49ZM401.091 62.2115V64.6106H398.692V62.2115H401.091ZM403.49 64.6106V67.0096H401.091V64.6106H403.49ZM413.087 59.8125V62.2115H410.688V59.8125H413.087ZM413.087 57.4134V59.8125H410.688V57.4134H413.087ZM415.486 55.0144V57.4134H413.087V55.0144H415.486ZM417.885 55.0144V57.4134H415.486V55.0144H417.885ZM417.885 52.6154V55.0144H415.486V52.6154H417.885ZM415.486 57.4134V59.8125H413.087V57.4134H415.486ZM420.284 52.6154V55.0144H417.885V52.6154H420.284ZM415.486 52.6154V55.0144H413.087V52.6154H415.486ZM413.087 52.6154V55.0144H410.688V52.6154H413.087ZM413.087 50.2163V52.6154H410.688V50.2163H413.087ZM410.688 50.2163V52.6154H408.288V50.2163H410.688ZM408.288 50.2163V52.6154H405.889V50.2163H408.288ZM408.288 52.6154V55.0144H405.889V52.6154H408.288ZM408.288 55.0144V57.4134H405.889V55.0144H408.288ZM405.889 55.0144V57.4134H403.49V55.0144H405.889ZM405.889 52.6154V55.0144H403.49V52.6154H405.889ZM403.49 57.4134V59.8125H401.091V57.4134H403.49ZM403.49 55.0144V57.4134H401.091V55.0144H403.49ZM401.091 57.4134V59.8125H398.692V57.4134H401.091ZM405.889 57.4134V59.8125H403.49V57.4134H405.889ZM408.288 57.4134V59.8125H405.889V57.4134H408.288ZM410.688 57.4134V59.8125H408.288V57.4134H410.688ZM410.688 55.0144V57.4134H408.288V55.0144H410.688ZM410.688 52.6154V55.0144H408.288V52.6154H410.688ZM413.087 55.0144V57.4134H410.688V55.0144H413.087ZM413.087 47.8173V50.2163H410.688V47.8173H413.087ZM410.688 47.8173V50.2163H408.288V47.8173H410.688ZM410.688 45.4182V47.8173H408.288V45.4182H410.688ZM410.688 43.0192V45.4182H408.288V43.0192H410.688ZM408.288 43.0192V45.4182H405.889V43.0192H408.288ZM408.288 40.6202V43.0192H405.889V40.6202H408.288ZM405.889 40.6202V43.0192H403.49V40.6202H405.889ZM403.49 40.6202V43.0192H401.091V40.6202H403.49ZM401.091 40.6202V43.0192H398.692V40.6202H401.091ZM398.692 40.6202V43.0192H396.293V40.6202H398.692ZM398.692 43.0192V45.4182H396.293V43.0192H398.692ZM396.293 43.0192V45.4182H393.894V43.0192H396.293ZM396.293 45.4182V47.8173H393.894V45.4182H396.293ZM393.894 45.4182V47.8173H391.495V45.4182H393.894ZM391.495 45.4182V47.8173H389.096V45.4182H391.495ZM389.096 45.4182V47.8173H386.697V45.4182H389.096ZM386.697 45.4182V47.8173H384.298V45.4182H386.697ZM386.697 43.0192V45.4182H384.298V43.0192H386.697ZM386.697 40.6202V43.0192H384.298V40.6202H386.697ZM389.096 40.6202V43.0192H386.697V40.6202H389.096ZM389.096 38.2211V40.6202H386.697V38.2211H389.096ZM389.096 35.8221V38.2211H386.697V35.8221H389.096ZM391.495 35.8221V38.2211H389.096V35.8221H391.495ZM391.495 33.423V35.8221H389.096V33.423H391.495ZM393.894 33.423V35.8221H391.495V33.423H393.894ZM396.293 33.423V35.8221H393.894V33.423H396.293ZM396.293 31.024V33.423H393.894V31.024H396.293ZM398.692 31.024V33.423H396.293V31.024H398.692ZM401.091 31.024V33.423H398.692V31.024H401.091ZM403.49 31.024V33.423H401.091V31.024H403.49ZM405.889 31.024V33.423H403.49V31.024H405.889ZM408.288 31.024V33.423H405.889V31.024H408.288ZM410.688 31.024V33.423H408.288V31.024H410.688ZM410.688 33.423V35.8221H408.288V33.423H410.688ZM413.087 33.423V35.8221H410.688V33.423H413.087ZM415.486 33.423V35.8221H413.087V33.423H415.486ZM415.486 35.8221V38.2211H413.087V35.8221H415.486ZM417.885 35.8221V38.2211H415.486V35.8221H417.885ZM417.885 38.2211V40.6202H415.486V38.2211H417.885ZM417.885 40.6202V43.0192H415.486V40.6202H417.885ZM420.284 40.6202V43.0192H417.885V40.6202H420.284ZM420.284 43.0192V45.4182H417.885V43.0192H420.284ZM420.284 45.4182V47.8173H417.885V45.4182H420.284ZM420.284 47.8173V50.2163H417.885V47.8173H420.284ZM420.284 50.2163V52.6154H417.885V50.2163H420.284ZM417.885 50.2163V52.6154H415.486V50.2163H417.885ZM415.486 50.2163V52.6154H413.087V50.2163H415.486ZM415.486 47.8173V50.2163H413.087V47.8173H415.486ZM417.885 47.8173V50.2163H415.486V47.8173H417.885ZM417.885 45.4182V47.8173H415.486V45.4182H417.885ZM417.885 43.0192V45.4182H415.486V43.0192H417.885ZM415.486 43.0192V45.4182H413.087V43.0192H415.486ZM415.486 45.4182V47.8173H413.087V45.4182H415.486ZM413.087 45.4182V47.8173H410.688V45.4182H413.087ZM413.087 43.0192V45.4182H410.688V43.0192H413.087ZM413.087 40.6202V43.0192H410.688V40.6202H413.087ZM415.486 40.6202V43.0192H413.087V40.6202H415.486ZM415.486 38.2211V40.6202H413.087V38.2211H415.486ZM413.087 38.2211V40.6202H410.688V38.2211H413.087ZM413.087 35.8221V38.2211H410.688V35.8221H413.087ZM410.688 35.8221V38.2211H408.288V35.8221H410.688ZM410.688 38.2211V40.6202H408.288V38.2211H410.688ZM410.688 40.6202V43.0192H408.288V40.6202H410.688ZM408.288 35.8221V38.2211H405.889V35.8221H408.288ZM408.288 33.423V35.8221H405.889V33.423H408.288ZM405.889 33.423V35.8221H403.49V33.423H405.889ZM403.49 33.423V35.8221H401.091V33.423H403.49ZM401.091 33.423V35.8221H398.692V33.423H401.091ZM398.692 33.423V35.8221H396.293V33.423H398.692ZM398.692 35.8221V38.2211H396.293V35.8221H398.692ZM396.293 35.8221V38.2211H393.894V35.8221H396.293ZM393.894 35.8221V38.2211H391.495V35.8221H393.894ZM391.495 38.2211V40.6202H389.096V38.2211H391.495ZM391.495 40.6202V43.0192H389.096V40.6202H391.495ZM389.096 43.0192V45.4182H386.697V43.0192H389.096ZM391.495 43.0192V45.4182H389.096V43.0192H391.495ZM393.894 43.0192V45.4182H391.495V43.0192H393.894ZM393.894 40.6202V43.0192H391.495V40.6202H393.894ZM393.894 38.2211V40.6202H391.495V38.2211H393.894ZM396.293 38.2211V40.6202H393.894V38.2211H396.293ZM398.692 38.2211V40.6202H396.293V38.2211H398.692ZM396.293 40.6202V43.0192H393.894V40.6202H396.293ZM401.091 38.2211V40.6202H398.692V38.2211H401.091ZM403.49 38.2211V40.6202H401.091V38.2211H403.49ZM405.889 38.2211V40.6202H403.49V38.2211H405.889ZM408.288 38.2211V40.6202H405.889V38.2211H408.288ZM405.889 35.8221V38.2211H403.49V35.8221H405.889ZM403.49 35.8221V38.2211H401.091V35.8221H403.49ZM401.091 35.8221V38.2211H398.692V35.8221H401.091Z" fill="white"/>
</svg>
