<svg width="100%" height="100%" viewBox="0 0 50 50" fill="none" xmlns="http://www.w3.org/2000/svg">
<path fill-rule="evenodd" clip-rule="evenodd" d="M29.6003 10.0626C30.5448 10.3542 31.4475 10.7292 32.3087 11.1876L36.1274 8.89592C36.5256 8.65709 36.9922 8.55812 37.453 8.61474C37.9139 8.67136 38.3426 8.88031 38.6712 9.20842L40.792 11.3292C41.1201 11.6578 41.3291 12.0865 41.3857 12.5474C41.4423 13.0082 41.3433 13.4748 41.1045 13.873L38.8128 17.6917C39.2712 18.5529 39.6462 19.4556 39.9378 20.4001L44.2566 21.4813C44.7071 21.5942 45.107 21.8543 45.3927 22.2205C45.6785 22.5866 45.8336 23.0377 45.8337 23.5022V26.498C45.8336 26.9624 45.6785 27.4135 45.3927 27.7797C45.107 28.1458 44.7071 28.406 44.2566 28.5188L39.9378 29.6001C39.6462 30.5445 39.2712 31.4473 38.8128 32.3084L41.1045 36.1272C41.3433 36.5254 41.4423 36.9919 41.3857 37.4528C41.3291 37.9136 41.1201 38.3424 40.792 38.6709L38.6712 40.7918C38.3426 41.1199 37.9139 41.3288 37.453 41.3854C36.9922 41.442 36.5256 41.3431 36.1274 41.1042L32.3087 38.8126C31.4475 39.2709 30.5448 39.6459 29.6003 39.9376L28.5191 44.2563C28.4062 44.7068 28.1461 45.1067 27.7799 45.3925C27.4138 45.6782 26.9627 45.8334 26.4982 45.8334H23.5024C23.038 45.8334 22.5869 45.6782 22.2207 45.3925C21.8546 45.1067 21.5944 44.7068 21.4816 44.2563L20.4003 39.9376C19.4643 39.6483 18.5575 39.2717 17.692 38.8126L13.8732 41.1042C13.4751 41.3431 13.0085 41.442 12.5476 41.3854C12.0868 41.3288 11.658 41.1199 11.3295 40.7918L9.20866 38.6709C8.88055 38.3424 8.6716 37.9136 8.61498 37.4528C8.55837 36.9919 8.65733 36.5254 8.89616 36.1272L11.1878 32.3084C10.7287 31.4429 10.3521 30.5361 10.0628 29.6001L5.74408 28.5188C5.29391 28.4061 4.89428 28.1462 4.60858 27.7805C4.32288 27.4148 4.16747 26.9642 4.16699 26.5001V23.5042C4.167 23.0398 4.32221 22.5887 4.60794 22.2226C4.89368 21.8564 5.29356 21.5963 5.74408 21.4834L10.0628 20.4022C10.3545 19.4577 10.7295 18.5549 11.1878 17.6938L8.89616 13.8751C8.65733 13.4769 8.55837 13.0103 8.61498 12.5495C8.6716 12.0886 8.88055 11.6599 9.20866 11.3313L11.3295 9.20842C11.658 8.88031 12.0868 8.67136 12.5476 8.61474C13.0085 8.55812 13.4751 8.65709 13.8732 8.89592L17.692 11.1876C18.5531 10.7292 19.4559 10.3542 20.4003 10.0626L21.4816 5.74383C21.5943 5.29366 21.8542 4.89404 22.2199 4.60834C22.5856 4.32264 23.0362 4.16722 23.5003 4.16675H26.4962C26.9606 4.16676 27.4117 4.32196 27.7778 4.6077C28.144 4.89343 28.4041 5.29332 28.517 5.74383L29.6003 10.0626ZM25.0003 33.3334C27.2105 33.3334 29.3301 32.4554 30.8929 30.8926C32.4557 29.3298 33.3337 27.2102 33.3337 25.0001C33.3337 22.7899 32.4557 20.6703 30.8929 19.1075C29.3301 17.5447 27.2105 16.6667 25.0003 16.6667C22.7902 16.6667 20.6706 17.5447 19.1078 19.1075C17.545 20.6703 16.667 22.7899 16.667 25.0001C16.667 27.2102 17.545 29.3298 19.1078 30.8926C20.6706 32.4554 22.7902 33.3334 25.0003 33.3334Z" fill="white"/>
</svg>
